<svg xmlns="http://www.w3.org/2000/svg" viewBox="0 0 104.83 77.13">
  <title>logo</title>
  <g>
    <path d="M44.76,77.12H26.33V74.25H44.76Z" transform="translate(-0.03 0.01)" style="fill: #388137;fill-rule: evenodd"/>
    <path d="M63.16,77.12H44.74V74.25H63.16Z" transform="translate(-0.03 0.01)" style="fill: #f1f1f1;fill-rule: evenodd"/>
    <path d="M81.56,77.12H63.14V74.25H81.56Z" transform="translate(-0.03 0.01)" style="fill: #b2152c;fill-rule: evenodd"/>
  </g>
  <path d="M56.92,19.43H53.44v-.34a3.29,3.29,0,0,0,.38,0,1.59,1.59,0,0,0,.3-.06.55.55,0,0,0,.24-.18.54.54,0,0,0,.08-.28V14l-2.21,5.35h-.58a5.26,5.26,0,0,0-.2-.56c-.1-.28-.19-.5-.26-.67l-1.62-4.18v3.7a3.17,3.17,0,0,0,.07.81.76.76,0,0,0,.24.4,1.23,1.23,0,0,0,.41.17,2.73,2.73,0,0,0,.41.1v.33H47.94V19.1l.37-.06a1,1,0,0,0,.41-.16.58.58,0,0,0,.25-.4,3.69,3.69,0,0,0,.06-.81v-3a1.2,1.2,0,0,0-.07-.46.68.68,0,0,0-.22-.29,1,1,0,0,0-.37-.17L48,13.68v-.33h3l1.58,4,1.34-3.26a3.06,3.06,0,0,0,.13-.43,1.83,1.83,0,0,0,.07-.32h2.85v.33l-.3,0-.3.06a.4.4,0,0,0-.24.18.75.75,0,0,0,0,.26v4.32a.48.48,0,0,0,0,.26.55.55,0,0,0,.24.18,1.46,1.46,0,0,0,.3.07l.32.05Zm33,2.84a1.34,1.34,0,0,0-.27-.44,1.06,1.06,0,0,0-.74-.33s.09.19.15.37l.06.23a1.24,1.24,0,0,1,.8.17Zm-1-.13.16,0a1.86,1.86,0,0,0-.28-.21,1.11,1.11,0,0,0-.82-.08,2.63,2.63,0,0,1,.27.3c.06.09.13.19.18.28l.21-.13a1.43,1.43,0,0,1,.28-.13Zm-.53.29a.86.86,0,0,0-.21-.07,1.08,1.08,0,0,0-.81.11s.19.11.34.23A2.16,2.16,0,0,1,88,23a1.85,1.85,0,0,1,.4-.52Zm-.6.59a1,1,0,0,0-.69.42,4,4,0,0,1,.41.08l.23.07A2.86,2.86,0,0,1,88,23h-.16Zm-.22.71a.94.94,0,0,0-.46.64,3.07,3.07,0,0,1,.41-.08l.13,0a3.27,3.27,0,0,1,.07-.62l-.16.07Zm.32,19.63-.1,0a.93.93,0,0,0-.46.64s.2-.06.4-.08l.19,0a.43.43,0,0,1,0-.11,1.55,1.55,0,0,1,0-.48Zm.27-.66H88a1,1,0,0,0-.76.3s.21.06.39.14l.28.14a1.53,1.53,0,0,1,.25-.57Zm.54-.48a1.15,1.15,0,0,0-.25-.12,1,1,0,0,0-.81,0s.17.13.31.26a2.91,2.91,0,0,1,.24.27l0,0a2.21,2.21,0,0,1,.46-.4Zm.75-.24a1.55,1.55,0,0,0-.27-.24,1.07,1.07,0,0,0-.8-.16,3.7,3.7,0,0,1,.24.33c.06.11.11.2.14.27a1.64,1.64,0,0,1,.69-.21Zm.73.26a1,1,0,0,0-.14-.64,1,1,0,0,0-.71-.39,3.14,3.14,0,0,1,.11.38,1.58,1.58,0,0,1,.05.38,1.34,1.34,0,0,1,.35.05.69.69,0,0,1,.33.22Zm6.45-.58a7.49,7.49,0,0,1,1.64-.18,4.21,4.21,0,0,1-.54-1.18c-.06-.23-.11-.47-.15-.71l-.35.11-.3.67.17-.63a2.69,2.69,0,0,0-.32.13l-.27.56.15-.52-.37.18-.23.57.13-.51-.34.22-.23.64.13-.57,0,0-.23.19-.18.57.08-.48-.25.22-.12.44,0-.37a4.86,4.86,0,0,0-.53.58,5.29,5.29,0,0,1,3-2.1,5.89,5.89,0,0,1,.29-2.7c-.09-.08-.32-.3-.63-.62a15.75,15.75,0,0,0-2.44.88,3.85,3.85,0,0,0-2.55,2.85c-.11.93.47,1.76.35,2.42a2,2,0,0,1-1.77,1.45c-.73-.08-.43-.66-.59-1.29s-1.26-.65-2,.15a1.74,1.74,0,0,0,.53,2.49l.2.11a2.55,2.55,0,0,0,1.9.37s-.1.28-.07.3a1.12,1.12,0,0,0,.63,0,1.8,1.8,0,0,0,.64-.41S91.9,46,92,46a.87.87,0,0,0,.68-.21,1.55,1.55,0,0,0,.44-.55,2.9,2.9,0,0,0,0,.51,1.07,1.07,0,0,0,.58-.42,1.7,1.7,0,0,0,.3-.62s.08.45.14.45.24-.15.34-.46a3.49,3.49,0,0,0,.11-.71,3.6,3.6,0,0,0,.31.54,1,1,0,0,0,.3-.57,1.42,1.42,0,0,0-.09-.64s.3.33.34.32a.67.67,0,0,0,.24-.63,6,6,0,0,1,0-.73,2.37,2.37,0,0,1,1-.61Zm-2,1a4.35,4.35,0,0,1-4,2.42,4.84,4.84,0,0,0,2.51-.8,4.54,4.54,0,0,0,1.44-1.58c.08-.15.08,0,.08,0Zm10.16,1.63a1,1,0,0,0-.23-.59,1.49,1.49,0,0,0-.55-.37,1.87,1.87,0,0,0,.47,0,.71.71,0,0,0-.31-.6,4.61,4.61,0,0,1-.6-.47,3.53,3.53,0,0,1-.15-.91c0-.85.39-.89.59-2.08a4.32,4.32,0,0,0,0-1.48,6.47,6.47,0,0,0-.64-1.51,4.24,4.24,0,0,1,.75,1.54c.18.06.53.16.62.09A3.06,3.06,0,0,0,104,35.8c-.6-.74-1.41-1-1.78-1.65a8,8,0,0,1-.6-2.39,2.58,2.58,0,0,1,.33-.76,1.78,1.78,0,0,0,.22.26c.06,0,.23-.23.32-.53a3.22,3.22,0,0,0,.1-.75s.22.38.28.39.16-.16.23-.51a3.16,3.16,0,0,0,.05-.75,2.07,2.07,0,0,0,.28.38s.17-.21.17-.67a4.93,4.93,0,0,0-.1-.86s.4.36.43.33a1.4,1.4,0,0,0,0-.76,1.78,1.78,0,0,0-.26-.73,2.62,2.62,0,0,0,.51.3,1.13,1.13,0,0,0-.1-.7,3.2,3.2,0,0,0-.4-.72,4.5,4.5,0,0,0,.6.17,1.24,1.24,0,0,0-.15-.65,2.61,2.61,0,0,0-.46-.59,4.36,4.36,0,0,0,.51,0s-.07-.28-.25-.53a1.87,1.87,0,0,0-.51-.46,2.88,2.88,0,0,0,.51-.1s-.27-.37-.5-.52a4.4,4.4,0,0,0-.56-.31,1.92,1.92,0,0,0,.45-.18,1.4,1.4,0,0,0-.55-.44,2.78,2.78,0,0,0-.65-.23s.41-.24.39-.28a1.61,1.61,0,0,0-.7-.26,3.31,3.31,0,0,0-.83,0,2.42,2.42,0,0,0,.27-.36,2.48,2.48,0,0,0-1-.05,3.82,3.82,0,0,0-.57.11l0,.1a1,1,0,0,1-.47.89l0-.09L98,21.48l-.07,0a.65.65,0,0,0,.1-.15.43.43,0,0,0,0,0,1,1,0,0,1,0-.14,4.66,4.66,0,0,0-2.51.87c-.14.07-1.6.39-1.81.52s0,.46,0,.46.45-.27.45-.07c0,0-.14,0-.24,0a.39.39,0,0,0-.23.19.62.62,0,0,0,0,.23,1.48,1.48,0,0,0,1.86.86A1.66,1.66,0,0,0,96,24c.35-.18.58-.7.78-.48a3.26,3.26,0,0,1,.42,1.38.39.39,0,0,1-.37.41h-.08c-.26,0-.88-.08-1.27-.11s-.51.05-.5.27.46.71.59.68.6-.51.92-.42a10.16,10.16,0,0,1,1,.48,1.71,1.71,0,0,0,2.27-.53,1.62,1.62,0,0,0,.24-.8c.1,1.31-1.23,2-2.73,1.4-.79.28-3.45,1.45-3.26,4.09a4.1,4.1,0,0,0,.06.49A15.7,15.7,0,0,1,97,28.37,3.54,3.54,0,0,1,98.8,28a12,12,0,0,1,1.37,1,1.84,1.84,0,0,1,.29,2.68l-.14.15h0s-.08,0-.27-.24a1.29,1.29,0,0,1-.08.55c-.13.28-.39.53-.49.53h0s-.08,0-.16-.25a2,2,0,0,1-.22.44,1,1,0,0,1-.52.43h0s-.05,0-.15-.26a2,2,0,0,1-.26.51c-.21.29-.41.43-.51.43h0s-.08,0-.14-.29a1.86,1.86,0,0,1-.22.35,1.31,1.31,0,0,1-.59.41h0s-.07,0-.1-.23a1.53,1.53,0,0,1-.26.4l-.21.22a18.23,18.23,0,0,0,1.9,2,5.7,5.7,0,0,0-.14,3.49c.67,2.37,2.53,2.33,3.25,3.4s1,2.41.38,2.71-.73-.35-1.22-.81-1.43.1-1.57,1.11a1.85,1.85,0,0,0,1.85,1.85h.23a4.44,4.44,0,0,0,2.29-.76s.15.27.18.26a1.11,1.11,0,0,0,.41-.45,1.8,1.8,0,0,0,.13-.72s.19.46.24.46a.77.77,0,0,0,.31-.61,1.62,1.62,0,0,0-.12-.69,3.39,3.39,0,0,0,.39.36,1,1,0,0,0,.08-.69,1.9,1.9,0,0,0-.27-.64s.4.25.44.22a.66.66,0,0,0-.13-.56,3,3,0,0,0-.46-.56,4.18,4.18,0,0,0,.61.15Zm-2-19.49s0-.32.1-.06a4,4,0,0,1,.09.68Zm.32,2.86a2.65,2.65,0,0,1-.13.54v-.54s.13-.22.12,0Zm-.22-3.85a4.71,4.71,0,0,1,.19.64l-.29-.58s0-.32.09-.06Zm-.13,1.79a4.92,4.92,0,0,1,0,.67l-.06-.64s.08-.29.09,0Zm-.25,2.93s.12-.25.1,0-.1.58-.1.58Zm-.16-2.26s.11-.34.1,0a4.42,4.42,0,0,1-.1.73ZM97,21.74h-.07a.53.53,0,0,1-.29.53.8.8,0,0,1-.69-.1.27.27,0,0,1-.12,0s0-.07,0-.08a.28.28,0,0,0,.13,0c.07,0,.41-.29.65-.37a1,1,0,0,1,.48-.06s0,0-.06,0Zm-.57,5.47a1.06,1.06,0,0,1-.36.09l.28-.15s.29,0,.08.06Zm.86,0a1.86,1.86,0,0,1-.46.19l.38-.24s.26-.08.07,0Zm.89-.12a5.77,5.77,0,0,1-.55.29l.48-.35s.24,0,.06.06Zm.87-.16a1.88,1.88,0,0,1-.42.27l.33-.3s.24-.12.08,0Zm.84-.49a3.44,3.44,0,0,1-.39.55l.3-.61s.22-.19.09.06ZM98.57,36.9s.22-.12.08.07-.44.52-.44.52Zm0,.8s.2-.08.08.09-.31.39-.48.58Zm-.06.88s.28-.23.06.05l-.36.45Zm.15.62s.26-.17,0,.12a3.72,3.72,0,0,1-.41.48Zm.08.73s.22-.14.08.06-.31.41-.31.41Zm.39.71a4.87,4.87,0,0,1-.32.47L99,40.6s.22-.18.1,0Zm.38.42a4.2,4.2,0,0,1-.25.43l.17-.43s.17-.19.08,0Zm.54.44a2.77,2.77,0,0,1-.22.46l.1-.46s.17-.15.12,0Zm.4-15.41a3.61,3.61,0,0,1-.27.64l.15-.64s.17-.25.11,0Zm.36,2.11a4.52,4.52,0,0,1-.23.5l.15-.53s.17-.26.07,0Zm.11-2.57c-.07.28-.19.66-.19.66l.08-.64s.16-.3.1,0Zm.6-1s0-.35.1-.07.08.65.08.65Zm.18-.76c.11.33.19.64.19.64l-.28-.58s0-.39.08-.06Zm.39,5.31q-.07.28-.18.57l.07-.57s.17-.26.11,0Zm0-2.12c-.1.37-.2.65-.2.65L102,27s.22-.37.12,0Zm-.39-3.75s-.08-.33.07-.08l.26.49Zm-.21-.93c.2.28.4.52.4.52l-.47-.44s-.14-.36.06-.08Zm-.26,2.84s.15-.27.12,0a5.05,5.05,0,0,1-.12.56Zm.3,4.57a4.18,4.18,0,0,1-.2.69l.1-.69s.14-.29.09,0Zm0-2.15a4.92,4.92,0,0,1-.21.65l.1-.65s.15-.24.1,0Zm.47,8s-.18-.26.11-.07a2.45,2.45,0,0,1,1,1.77,2.33,2.33,0,0,0-1.1-1.7Zm1.51,11.07a5.15,5.15,0,0,0-.38-3.83c-.06-.13.09,0,.09,0a4.46,4.46,0,0,1,.27,3.79Zm-9.6-16.32a3.53,3.53,0,0,1,0-.46c-2,.36-3.77-1.85-3.77-1.85a8.69,8.69,0,0,0,2.08,1.52,2.62,2.62,0,0,0,1.7.22,3.7,3.7,0,0,1,1.58-2.65A8.54,8.54,0,0,0,93,27.4c-.08,0-1.9-1.5-2.23-1.68a6.64,6.64,0,0,1-.94-.62.48.48,0,0,1,.05-.57A2.9,2.9,0,0,0,90.46,23,1.2,1.2,0,0,0,89,22.19a1.21,1.21,0,0,0-.3.11,2.51,2.51,0,0,0-.8,2.86c.37.85.84.9.93,1.21a1.56,1.56,0,0,1,0,.57s-.32-.1-.35-.07,0,.25.19.52a2.07,2.07,0,0,0,.54.48,1.34,1.34,0,0,0-.4,0,1.13,1.13,0,0,0,.36.48,2.13,2.13,0,0,0,.76.36l-.52.11a1.27,1.27,0,0,0,.53.52,2.42,2.42,0,0,0,.91.21,4.56,4.56,0,0,0-.55.24,1.58,1.58,0,0,0,.81.49,1.84,1.84,0,0,0,.7.07s-.29.32-.27.36a.73.73,0,0,0,.62.13,3.22,3.22,0,0,0,.89-.3,4.94,4.94,0,0,0-.3.49,1.06,1.06,0,0,0,.66,0,2.11,2.11,0,0,0,.51-.29c0-.11,0-.22,0-.34Zm4.67,16.38v-.06a1.9,1.9,0,0,1,.18-.57,1.27,1.27,0,0,0-.28,0,1,1,0,0,0-.67.44,2.41,2.41,0,0,1,.41.06l.34.1Zm1-1.82a1,1,0,0,0-.82,0s.17.12.31.26a3.88,3.88,0,0,1,.26.31,1,1,0,0,1,.51-.16.57.57,0,0,1,.22,0,1,1,0,0,0-.5-.48Zm-.75,1.13a1.55,1.55,0,0,1,.47-.52,2.29,2.29,0,0,0-.36-.07,1.06,1.06,0,0,0-.77.28s.2.06.38.15l.27.16ZM99,47.9a1.6,1.6,0,0,1-.28-.4l0,.09a.89.89,0,0,0,0,.78,3.37,3.37,0,0,1,.3-.28l.14-.1L99,47.9Zm-.41-1.09-.16.07a.94.94,0,0,0-.46.64,2.76,2.76,0,0,1,.4-.08l.32,0a1.32,1.32,0,0,1-.12-.62Zm1-25.71c-.09-.46-.81-.51-1.13-.35a.78.78,0,0,0-.37.58.45.45,0,0,1-.11.17l.39.14.08-.19h0c.12-.28.21-.47.63-.47-.37.07-.43.16-.54.45l.25-.06a1.61,1.61,0,0,1-.28.15c0,.07-.05.13-.06.16l.69.25s.53-.37.44-.84ZM97.1,24.9a2.11,2.11,0,0,0,0-.25,1.79,1.79,0,0,0-1-.31c-.46,0-1.1.36-1.54.39s-.73,0-.84-.26,0-.49,0-.52a.63.63,0,0,0-.44.61c0,.42.42.68,1,.62A7.74,7.74,0,0,1,96,24.89a1.64,1.64,0,0,1,.83.36.33.33,0,0,0,.31-.35Zm-2.56-.72a1.19,1.19,0,0,0,.08.2.66.66,0,0,0,.21.23,3.39,3.39,0,0,0,.31-.34h0a1.4,1.4,0,0,1-.57-.1Zm1.61-2.12a.3.3,0,0,0,.4.1.29.29,0,0,0,.14-.24.33.33,0,0,0,0-.13H96.6a2.59,2.59,0,0,0-.46.26ZM88.4,32.42a2,2,0,0,1,.55-.1.91.91,0,0,1,.23,0,1.57,1.57,0,0,0-.35-.42,1.1,1.1,0,0,0-.79-.22,3.77,3.77,0,0,1,.2.34,2.75,2.75,0,0,1,.15.36Zm-.94.13.21.23a2.07,2.07,0,0,1,.32-.19,2.33,2.33,0,0,1,.33-.14,1.55,1.55,0,0,0-.36-.19,1,1,0,0,0-.81,0,3.73,3.73,0,0,1,.3.25ZM87,34a1.52,1.52,0,0,1,.17-.63l-.27,0a1,1,0,0,0-.63.5s.22,0,.42,0,.22,0,.3.05Zm.2-.68a1.62,1.62,0,0,1,.48-.53,1.51,1.51,0,0,0-.41-.09,1,1,0,0,0-.78.25s.2.07.38.16l.32.2Zm-.2.75a1.18,1.18,0,0,0-.19.11,1,1,0,0,0-.38.69,3.89,3.89,0,0,1,.39-.13l.33-.05a1.4,1.4,0,0,1-.16-.63Zm13.9-3.59a1.65,1.65,0,0,1-.53,1.19c-.06,0-.36-.4-.36-.4a1.59,1.59,0,0,1-.06.75,1,1,0,0,1-.42.5c-.06,0-.18-.43-.18-.43a2,2,0,0,1-.27.64,1,1,0,0,1-.47.41,3.93,3.93,0,0,1-.18-.43,1.88,1.88,0,0,1-.3.7c-.22.31-.41.4-.46.4s-.13-.48-.13-.48a1.76,1.76,0,0,1-.29.56,1.32,1.32,0,0,1-.54.39s-.08-.46-.08-.46a1.87,1.87,0,0,1-.35.65,1.52,1.52,0,0,1-.54.43,1.93,1.93,0,0,1-.11-.53,2.16,2.16,0,0,1-.28.57,1.42,1.42,0,0,1-.52.41,1.79,1.79,0,0,1-.09-.46,1.75,1.75,0,0,1-.4.61,1.27,1.27,0,0,1-.57.36s0-.46,0-.46a2.13,2.13,0,0,1-.44.46A1.06,1.06,0,0,0,92,36.2a1.56,1.56,0,0,1-.63.17.32.32,0,0,0,.12-.46A.36.36,0,0,0,91,35.8a.34.34,0,0,0-.15.4,1,1,0,0,1-.55,0s.11-.21.11-.21a2.3,2.3,0,0,1-.57-.11c-.3-.09-.47-.36-.54-.38s-.43.09-.59.09a1.92,1.92,0,0,1-1.49-.76,1.49,1.49,0,0,1,.59-2.1l.19-.09c1-.51,1.55-.16,1.65.14s0,.45-.05.59a.49.49,0,0,0,.38.39,4.84,4.84,0,0,0,2-.92c1-.65,3.35-3.49,5-4.41,2-1.1,3.84-.54,3.81,2.07Zm-8.53,4.33-.46.38a3.87,3.87,0,0,0,.55-.34c.16-.15-.1-.05-.1-.05Zm.88-.37-.37.46a2.47,2.47,0,0,0,.47-.44c.11-.19-.11,0-.11,0Zm.69-.35-.33.44a2.67,2.67,0,0,0,.42-.4c.15-.21-.11,0-.11,0Zm.62-.24-.35.46a2.29,2.29,0,0,0,.44-.44c.19-.27-.1,0-.1,0Zm.77-.44-.37.48a2.67,2.67,0,0,0,.46-.43c.16-.24-.1-.06-.1-.06Zm.66-.38-.3.52a3.31,3.31,0,0,0,.41-.5c.17-.28-.12,0-.12,0Zm.78-.47-.27.47a5.58,5.58,0,0,0,.38-.47c.17-.26-.12,0-.12,0Zm.77-.36-.32.54a2.5,2.5,0,0,0,.4-.51c.15-.3-.1,0-.1,0Zm.76-.5-.27.5s.18-.22.36-.47-.1,0-.1,0Zm.73-.39-.17.39a2.76,2.76,0,0,0,.28-.39c.09-.2-.13,0-.13,0ZM15.73,22.1c0-.06,0-.14.06-.23a2.7,2.7,0,0,1,.15-.37,1.06,1.06,0,0,0-.74.33,1.45,1.45,0,0,0-.27.44,1.34,1.34,0,0,1,.79-.18Zm.49.16a1.37,1.37,0,0,1,.2.13c.06-.09.12-.19.19-.28a2.11,2.11,0,0,1,.26-.3,1.09,1.09,0,0,0-.81.08,1.46,1.46,0,0,0-.28.21l.15,0a1.09,1.09,0,0,1,.27.11Zm.65.69.28-.25c.15-.12.34-.22.34-.23a1.09,1.09,0,0,0-.81-.11l-.21.07a1.92,1.92,0,0,1,.39.51Zm0,.06a2.86,2.86,0,0,1,.21.58l.23-.07a2.9,2.9,0,0,1,.4-.07,1,1,0,0,0-.68-.43l-.18,0Zm.22.64a3.4,3.4,0,0,1,.08.63h.13c.2,0,.4.09.41.08a1,1,0,0,0-.46-.64l-.17-.08ZM17,43.84l0,.12h.19c.2,0,.4.09.41.09a1,1,0,0,0-.47-.64l-.1-.06a1.47,1.47,0,0,1,0,.47Zm0-.56a1.67,1.67,0,0,1,.27-.14,2.09,2.09,0,0,1,.39-.14,1,1,0,0,0-.75-.31l-.17,0a1.47,1.47,0,0,1,.24.56Zm-.33-.66,0,.05a1.55,1.55,0,0,1,.24-.27c.14-.14.31-.25.31-.26a1.06,1.06,0,0,0-.82,0l-.24.12a2.11,2.11,0,0,1,.45.39Zm-.53-.44c0-.07.08-.16.14-.27s.24-.31.24-.32a1.06,1.06,0,0,0-.8.15,1.55,1.55,0,0,0-.27.24,1.62,1.62,0,0,1,.67.2ZM15,42a1,1,0,0,1,.35-.05,1.74,1.74,0,0,1,.05-.39,3.94,3.94,0,0,1,.11-.38,1,1,0,0,0-.71.39,1,1,0,0,0-.14.65A.62.62,0,0,1,15,42Zm-5.73.23a6,6,0,0,1,0,.73.7.7,0,0,0,.25.63s.33-.31.33-.31a1.26,1.26,0,0,0-.08.64.91.91,0,0,0,.3.56,2.86,2.86,0,0,0,.3-.54,2.85,2.85,0,0,0,.12.71c.1.31.28.47.33.47s.14-.46.14-.46a1.83,1.83,0,0,0,.3.63,1.13,1.13,0,0,0,.59.41,2.9,2.9,0,0,0,0-.51,1.7,1.7,0,0,0,.45.55.84.84,0,0,0,.68.21s-.19-.48-.19-.48a1.92,1.92,0,0,0,.64.4,1.13,1.13,0,0,0,.63,0s-.07-.3-.07-.3a2.54,2.54,0,0,0,1.9-.37,1.75,1.75,0,0,0,.85-2.41l-.12-.19c-.69-.79-1.79-.79-1.95-.15s.14,1.21-.59,1.3a2,2,0,0,1-1.77-1.46c-.12-.66.46-1.49.35-2.42a3.85,3.85,0,0,0-2.55-2.85,14.74,14.74,0,0,0-2.44-.87L7,36.82a5.77,5.77,0,0,1,.29,2.7,4.86,4.86,0,0,1,1.89.9,4.72,4.72,0,0,1,1.16,1.2A5.78,5.78,0,0,0,9.81,41l0,.38L9.74,41l-.25-.22.08.48-.18-.57-.23-.18-.05,0,.13.58L9,40.37a2.5,2.5,0,0,0-.35-.21l.14.5-.24-.56a3.14,3.14,0,0,0-.37-.18l.15.52-.27-.57-.31-.12.16.62-.3-.67-.35-.11q-.06.36-.15.72a3.77,3.77,0,0,1-.54,1.17,8.86,8.86,0,0,1,1.64.18,2.34,2.34,0,0,1,1,.59Zm1,.47a4.45,4.45,0,0,0,1.44,1.58,4.94,4.94,0,0,0,2.51.8,4.37,4.37,0,0,1-4-2.42s0-.12.07,0ZM.65,44.16a3.56,3.56,0,0,0-.47.57.7.7,0,0,0-.13.56s.44-.22.44-.22a2.13,2.13,0,0,0-.27.64,1,1,0,0,0,.09.68S.69,46,.69,46a1.48,1.48,0,0,0-.11.69.79.79,0,0,0,.3.61c.06,0,.25-.46.25-.46a1.64,1.64,0,0,0,.13.72,1,1,0,0,0,.41.45s.18-.26.18-.26a4.37,4.37,0,0,0,2.28.76,1.87,1.87,0,0,0,2.08-1.62,1.62,1.62,0,0,0,0-.22c-.13-1-1.07-1.57-1.56-1.11s-.56,1.1-1.23.81-.31-1.67.38-2.71,2.59-1,3.26-3.41a5.78,5.78,0,0,0-.14-3.49,17.45,17.45,0,0,0,1.9-2,2.23,2.23,0,0,1-.22-.21,2.11,2.11,0,0,1-.26-.4c0,.21-.06.22-.1.23h0A1.37,1.37,0,0,1,7.63,34a1.86,1.86,0,0,1-.22-.35c-.06.28-.1.28-.14.29h0c-.1,0-.3-.14-.51-.43A1.67,1.67,0,0,1,6.5,33c-.1.26-.13.27-.16.27h0a1.1,1.1,0,0,1-.52-.43,2,2,0,0,1-.21-.44c-.09.24-.13.25-.17.25h0c-.1,0-.36-.26-.49-.53a1.5,1.5,0,0,1-.08-.55c-.19.24-.24.24-.26.24h0a1.83,1.83,0,0,1,0-2.69,1.07,1.07,0,0,1,.16-.14,13.49,13.49,0,0,1,1.37-1,3.62,3.62,0,0,1,1.81.41,15.7,15.7,0,0,1,3,2.49,4.1,4.1,0,0,0,.06-.49c.19-2.64-2.47-3.81-3.26-4.09-1.5.64-2.82-.09-2.73-1.4a1.62,1.62,0,0,0,1.67,1.55,1.72,1.72,0,0,0,.84-.22,10.16,10.16,0,0,1,1-.48c.32-.09.79.39.92.42s.59-.47.6-.69-.1-.3-.5-.26-1,.11-1.28.11A.4.4,0,0,1,7.72,25a.06.06,0,0,1,0-.06,3.12,3.12,0,0,1,.42-1.38c.19-.23.42.29.78.48a1.51,1.51,0,0,0,2-.4,1.3,1.3,0,0,0,.16-.31.46.46,0,0,0,0-.23.39.39,0,0,0-.23-.19c-.1,0-.23.06-.24,0s.39-.07.45.08c0,0,.24-.34,0-.47S9.45,22.07,9.31,22a4.62,4.62,0,0,0-2.5-.87l0,.14s0,0,0,.05a.6.6,0,0,0,.09.15l-.07,0-1.15.4,0,.09a1,1,0,0,1-.48-.89.3.3,0,0,1,0-.1,3.71,3.71,0,0,0-.58-.11,2.43,2.43,0,0,0-1,.05,1.83,1.83,0,0,0,.26.36,3.23,3.23,0,0,0-.82.05,1.52,1.52,0,0,0-.7.26s.38.28.38.28a3.15,3.15,0,0,0-.65.23,1.4,1.4,0,0,0-.55.44,3.66,3.66,0,0,0,.46.18,3.81,3.81,0,0,0-.56.31c-.24.15-.54.48-.51.52a3.06,3.06,0,0,0,.51.1,2,2,0,0,0-.51.46,1,1,0,0,0-.25.53,4.36,4.36,0,0,0,.51,0,2.67,2.67,0,0,0-.46.59,1.35,1.35,0,0,0-.15.65,4.5,4.5,0,0,0,.6-.17,3.65,3.65,0,0,0-.4.72,1.21,1.21,0,0,0-.1.7,2.62,2.62,0,0,0,.51-.3,2.13,2.13,0,0,0-.26.73,1.4,1.4,0,0,0,0,.76A2.88,2.88,0,0,0,1.41,28a4.12,4.12,0,0,0-.09.86c0,.46.13.67.16.67a2.72,2.72,0,0,0,.29-.38,3.15,3.15,0,0,0,0,.75c.08.35.17.52.23.51s.28-.39.28-.39a3.86,3.86,0,0,0,.1.75c.09.3.26.55.32.53A1.86,1.86,0,0,0,3,31a2.92,2.92,0,0,1,.32.75,7.7,7.7,0,0,1-.6,2.4c-.37.61-1.18.91-1.78,1.65a3.16,3.16,0,0,0-.82,2.11c.1.07.44,0,.63-.09a4.22,4.22,0,0,1,.74-1.54A6,6,0,0,0,.83,37.8a4,4,0,0,0,0,1.47c.2,1.2.61,1.24.59,2.09a4.1,4.1,0,0,1-.14.91,5.39,5.39,0,0,1-.6.47.71.71,0,0,0-.32.6,2.57,2.57,0,0,0,.48,0,1.49,1.49,0,0,0-.55.37.89.89,0,0,0-.23.59,4.44,4.44,0,0,0,.6-.16Zm1.2-18.71a3.84,3.84,0,0,1,.09-.68c.08-.27.1.05.1.05Zm0,2.23v.54a2.37,2.37,0,0,1-.13-.54c0-.22.11,0,.11,0ZM2,23.89l-.29.59a3.38,3.38,0,0,1,.19-.64c.1-.27.08.05.08.05Zm.12,1.76-.06.64q0-.33,0-.66c0-.27.08,0,.08,0Zm.16,3.48s-.07-.33-.1-.58.1,0,.1,0ZM2.48,27a4.42,4.42,0,0,1-.1-.73c0-.34.1,0,.1,0ZM7.82,21.7a1.29,1.29,0,0,1,.48.06,7.21,7.21,0,0,1,.65.38h.12s0,.07,0,.08l-.13,0a.79.79,0,0,1-.69.09.51.51,0,0,1-.28-.53H7.87s-.08,0-.07,0Zm.7,5.46.27.14a1.55,1.55,0,0,1-.36-.08c-.22-.09.08-.07.08-.07Zm-.87,0,.39.24a1.73,1.73,0,0,1-.46-.2c-.2-.13.06,0,.06,0Zm-.9-.14.49.35a5.85,5.85,0,0,1-.56-.28c-.19-.12.06-.07.06-.07Zm-.85-.13.34.3A2,2,0,0,1,5.82,27c-.18-.16.07,0,.07,0Zm-.84-.51.3.6A3.63,3.63,0,0,1,5,26.47c-.15-.25.08-.06.08-.06ZM6.67,37.5s-.3-.34-.45-.53.08-.07.08-.07Zm0,.87a6.57,6.57,0,0,1-.48-.57c-.12-.18.08-.09.08-.09Zm0,.72s-.16-.18-.37-.46.06-.05.06-.05Zm-.1.71a3.72,3.72,0,0,1-.41-.48c-.21-.28.06-.12.06-.12Zm-.21.6A5.09,5.09,0,0,1,6.05,40c-.14-.2.08-.05.08-.05Zm-.51.21.21.5c-.11-.15-.22-.31-.32-.47s.11,0,.11,0Zm-.41.46.17.42s-.16-.24-.25-.42.07,0,.07,0Zm-.51.44L5,42c-.08-.15-.15-.3-.22-.45s.11,0,.11,0ZM4.54,26.1l.16.63a3,3,0,0,1-.28-.63c-.07-.26.11,0,.11,0Zm-.4,2.07.15.53a4.52,4.52,0,0,1-.23-.5c-.11-.29.07,0,.07,0Zm-.08-2.52.08.64S4,25.91,4,25.63s.1,0,.1,0Zm-.89-.47a4.85,4.85,0,0,1,.08-.65c0-.28.1.07.1.07Zm.09-1.29L3,24.47s.08-.3.19-.63.08.05.08.05Zm-.37,5.26.07.56a5.22,5.22,0,0,1-.18-.56c-.07-.27.1,0,.1,0Zm0-2.13.07.66s-.1-.29-.2-.66.12,0,.12,0Zm-.07-3.33.26-.49c.15-.26.07.08.07.08Zm.61-1.26L3,22.87s.2-.25.4-.53.06.08.06.08Zm.19,3.28a5.41,5.41,0,0,1-.12-.55c0-.25.12,0,.12,0Zm-.19,4,.1.7a4.29,4.29,0,0,1-.2-.7c-.06-.29.09,0,.09,0Zm0-2.14.1.64a3.69,3.69,0,0,1-.21-.64c-.07-.25.1,0,.1,0ZM1.79,37.33a2.4,2.4,0,0,1,1-1.78c.28-.18.11.08.11.08a2.31,2.31,0,0,0-1.09,1.69ZM1.65,42.9s.14-.16.09,0a5.11,5.11,0,0,0-.38,3.83,4.48,4.48,0,0,1,.28-3.8Zm9.26-12.18a2.16,2.16,0,0,0,.51.29,1,1,0,0,0,.66,0,2.41,2.41,0,0,0-.3-.48,3.46,3.46,0,0,0,.89.3.74.74,0,0,0,.63-.14s-.27-.36-.27-.36a1.82,1.82,0,0,0,.7-.07,1.61,1.61,0,0,0,.82-.49,3.88,3.88,0,0,0-.56-.23,2.33,2.33,0,0,0,.91-.21,1.27,1.27,0,0,0,.53-.52,3,3,0,0,0-.52-.11,2.53,2.53,0,0,0,.76-.36,1.28,1.28,0,0,0,.37-.49h-.4a1.71,1.71,0,0,0,.53-.47c.19-.28.23-.5.2-.52S16,27,16,27a1.57,1.57,0,0,1,0-.57c.08-.31.55-.36.92-1.21a2.49,2.49,0,0,0-.8-2.85,1.23,1.23,0,0,0-1.64.42,1.18,1.18,0,0,0-.12.28A3,3,0,0,0,15,24.55a.44.44,0,0,1,.05.56,6.54,6.54,0,0,1-.93.62c-.33.18-2.15,1.66-2.23,1.69a8.65,8.65,0,0,0-2.53-.26A3.73,3.73,0,0,1,11,29.81a2.7,2.7,0,0,0,1.7-.21,8.73,8.73,0,0,0,2.08-1.53s-1.8,2.21-3.77,1.85a3.69,3.69,0,0,1,0,.47C10.94,30.49,10.93,30.6,10.91,30.72ZM6.63,46.64c.19,0,.41,0,.41-.06a1,1,0,0,0-.67-.44,1.27,1.27,0,0,0-.28,0,1.93,1.93,0,0,1,.18.56v.07a2,2,0,0,1,.35-.1Zm-1.8-1.25a.85.85,0,0,1,.23,0,.9.9,0,0,1,.5.16,3.88,3.88,0,0,1,.26-.31c.14-.14.31-.26.31-.27a1.11,1.11,0,0,0-.82,0,1,1,0,0,0-.48.47Zm1.51.51a3.75,3.75,0,0,1,.38-.16A1,1,0,0,0,6,45.47a2.2,2.2,0,0,0-.37.06,1.49,1.49,0,0,1,.47.53l.28-.16ZM5.79,48l.15.11c.15.12.29.27.3.27a.94.94,0,0,0,0-.77l-.06-.1a1.42,1.42,0,0,1-.28.41L5.78,48Zm.4-.57.31,0a3.07,3.07,0,0,1,.41.08.93.93,0,0,0-.47-.64l-.15-.07a1.48,1.48,0,0,1-.11.62ZM5.73,21.92l.69-.25s0-.09-.06-.16a1.61,1.61,0,0,1-.28-.15l.25.06c-.11-.29-.16-.38-.54-.45.43,0,.51.19.63.47h0l.08.19.39-.14a.62.62,0,0,1-.11-.17.78.78,0,0,0-.37-.58c-.32-.16-1-.11-1.13.35s.44.83.44.83ZM8.1,25.24a1.65,1.65,0,0,1,.82-.36,7.55,7.55,0,0,1,1.72.29c.58.06,1-.2,1-.62a.62.62,0,0,0-.43-.61c-.05,0,.06.26,0,.52s-.38.3-.83.26-1.08-.37-1.55-.39a1.76,1.76,0,0,0-1,.31,1.06,1.06,0,0,0,0,.25.3.3,0,0,0,.31.35Zm1.67-1h0a2.35,2.35,0,0,0,.3.33.66.66,0,0,0,.21-.23.72.72,0,0,0,.09-.2,1.65,1.65,0,0,1-.58.1Zm-1.5-2.48h0a.22.22,0,0,0,0,.13.29.29,0,0,0,.53.15,1.89,1.89,0,0,0-.46-.26ZM16.62,32c.09-.17.21-.34.2-.34a1,1,0,0,0-.78.22,1.69,1.69,0,0,0-.35.41l.22,0a1.78,1.78,0,0,1,.56.1,1.94,1.94,0,0,1,.15-.36Zm1.1.24a1,1,0,0,0-.81,0,1.24,1.24,0,0,0-.36.19l.33.13.32.2.21-.23a3,3,0,0,1,.31-.26ZM18.23,34c.2,0,.41,0,.42,0a1,1,0,0,0-.63-.5,1.26,1.26,0,0,0-.27,0,1.34,1.34,0,0,1,.12.3,1.26,1.26,0,0,1,.05.33c.07,0,.18,0,.31-.05Zm-.18-.83c.17-.09.37-.15.38-.16a1,1,0,0,0-.78-.25,1.51,1.51,0,0,0-.41.09,1.62,1.62,0,0,1,.48.53l.32-.2Zm-.28,1.58.33.06a3.14,3.14,0,0,1,.4.12,1,1,0,0,0-.38-.69l-.19-.11a1.37,1.37,0,0,1-.17.62ZM7.84,28.43c1.68.92,4,3.75,5,4.41a4.87,4.87,0,0,0,2,.92.49.49,0,0,0,.38-.39c0-.15-.15-.3-.05-.6s.64-.64,1.65-.13a1.5,1.5,0,0,1,.88,2,1.62,1.62,0,0,1-.1.18,1.87,1.87,0,0,1-1.49.76c-.16,0-.51-.09-.59-.08s-.24.28-.54.38a2.87,2.87,0,0,1-.57.11s.15.19.12.21a1.32,1.32,0,0,1-.56,0,1.88,1.88,0,0,1-.66-.25,1.88,1.88,0,0,1,.14.42,1.63,1.63,0,0,1-.62-.17,1.85,1.85,0,0,1-.58-.37,1.5,1.5,0,0,1,0,.37,1.9,1.9,0,0,1-.64-.31,3.19,3.19,0,0,1-.44-.46,1.77,1.77,0,0,1,0,.46,1.28,1.28,0,0,1-.57-.37,1.71,1.71,0,0,1-.4-.6,1.8,1.8,0,0,1-.09.45A1.24,1.24,0,0,1,9.57,35a2.26,2.26,0,0,1-.28-.56,2,2,0,0,1-.11.53,1.66,1.66,0,0,1-.54-.44,2,2,0,0,1-.35-.64s0,.44-.08.45a1.23,1.23,0,0,1-.54-.39,1.61,1.61,0,0,1-.29-.55s-.08.46-.13.47-.24-.09-.46-.4a2,2,0,0,1-.3-.7,3.25,3.25,0,0,1-.18.43,1.15,1.15,0,0,1-.47-.4,2.16,2.16,0,0,1-.26-.65s-.13.43-.18.43A1,1,0,0,1,5,32.05a1.63,1.63,0,0,1-.06-.76s-.3.41-.35.41A1.65,1.65,0,0,1,4,30.5c0-2.61,1.8-3.17,3.81-2.07Zm4.63,6.45a3.71,3.71,0,0,0,.54.33l-.46-.38s-.27-.1-.09.06Zm-.9-.4a2.43,2.43,0,0,0,.47.44l-.37-.46s-.22-.16-.1,0Zm-.68-.33a4,4,0,0,0,.42.4L11,34.11s-.26-.16-.1,0Zm-.62-.26a2.34,2.34,0,0,0,.45.44l-.35-.46s-.3-.24-.1,0Zm-.76-.4a2.69,2.69,0,0,0,.46.43l-.37-.49s-.28-.18-.1.06Zm-.68-.42a3.31,3.31,0,0,0,.41.5l-.31-.52s-.29-.25-.11,0ZM8,32.58a5.71,5.71,0,0,0,.39.47l-.28-.47s-.29-.25-.11,0Zm-.73-.33a2.2,2.2,0,0,0,.4.51l-.32-.54s-.26-.26-.09,0Zm-.78-.5c.18.25.36.47.36.47l-.27-.5s-.27-.23-.1,0Zm-.74-.42a2.14,2.14,0,0,0,.28.39l-.17-.39s-.23-.19-.12,0ZM52.42,0a4.53,4.53,0,0,0-2.25.65l.32.3.33.3.15.45.16.45h-1l-.33-.32L49.5,1.5a3.2,3.2,0,0,0-.7,2.24,3.45,3.45,0,0,0,.86,2.1L50,5.49l.33-.36h1.15V7a13.72,13.72,0,0,0-5.13,1.13,9.94,9.94,0,0,0-3.49,2.65,5.75,5.75,0,0,0-.56.83,7,7,0,0,0-.44,1c-3.4-1-5.61-.25-7,.77A6.17,6.17,0,0,0,33,15.6a6.35,6.35,0,0,0-5.33,3,8.5,8.5,0,0,0-1.19,2.89,9.24,9.24,0,0,0,.11,3.59,10.17,10.17,0,0,0,.9,2.49l.47,2.68L28.4,33H49.59a3.84,3.84,0,0,0,1.21,1.36,2.92,2.92,0,0,0,1.63.52h0a2.92,2.92,0,0,0,1.62-.52A4,4,0,0,0,55.27,33H76.45l.47-2.68.46-2.68a10.17,10.17,0,0,0,.9-2.49,9.43,9.43,0,0,0,.12-3.59,8.52,8.52,0,0,0-1.2-2.89,6.33,6.33,0,0,0-5.33-3A6.05,6.05,0,0,0,70,13.31c-1.37-1-3.59-1.79-7-.77a7,7,0,0,0-.44-1,5.1,5.1,0,0,0-.57-.83A9.71,9.71,0,0,0,58.5,8.1,13.67,13.67,0,0,0,53.37,7V5.14h1.15l.34.35.34.36a3.59,3.59,0,0,0,.86-2.1,3.2,3.2,0,0,0-.7-2.24L55,1.83l-.33.32h-1l.16-.45.16-.45.32-.3.32-.3A4.53,4.53,0,0,0,52.44,0m0,7.92c4.2,0,7.13,1.13,8.7,3.36a7.86,7.86,0,0,1,1.16,3.08,1.36,1.36,0,0,0-.57,1.9,1.48,1.48,0,0,0,.8.63c0,.35,0,.71,0,1.06A1.64,1.64,0,0,0,61.34,20a1.67,1.67,0,0,0,1,1.06c0,.35-.08.69-.13,1h0a2.27,2.27,0,0,0-2.33,2.21,2.19,2.19,0,0,0,1.57,2.08c-.12.54-.23.95-.3,1.21h-6A3.23,3.23,0,0,0,52.43,26v1.09h0V26a3.23,3.23,0,0,0-2.68,1.6h-6c-.07-.26-.17-.68-.3-1.21a2.18,2.18,0,0,0,1.45-2.81,2.34,2.34,0,0,0-2.21-1.49h0c-.05-.33-.09-.68-.13-1a1.63,1.63,0,0,0,.89-2.19,1.75,1.75,0,0,0-1.12-.93V16.89a1.37,1.37,0,0,0,.24-2.54,7.61,7.61,0,0,1,1.16-3.07c1.58-2.24,4.5-3.37,8.7-3.37m-24,19.69a9.38,9.38,0,0,1-1.12-6s1.16-5.05,5.38-5.24c-.05.13-.1.26-.14.4a7.77,7.77,0,0,0-.39,2.13,1.38,1.38,0,0,0-.91,1.78,1.44,1.44,0,0,0,1.05.9c.07.44.14.88.23,1.31A1.6,1.6,0,0,0,32,25.2a1.77,1.77,0,0,0,1.39.76c.23.67.45,1.23.62,1.64Zm6.84,3.74-1.09-1,1.09-1,1.09,1Zm-.16-3.74c-.15-.32-.45-1-.77-1.85A1.61,1.61,0,0,0,35,23.49a1.74,1.74,0,0,0-1.53-.85h-.05c-.07-.37-.14-.74-.19-1.13a1.36,1.36,0,0,0,.75-1.84,1.43,1.43,0,0,0-.82-.74,7.62,7.62,0,0,1,.36-1.77s1.24-5.93,8.13-3.81c-.06.23-.16.65-.2.89a1.37,1.37,0,0,0-.28,2.55c0,.41,0,.83,0,1.24a1.63,1.63,0,0,0-.87,2.2,1.74,1.74,0,0,0,1.08.9c0,.45.12.88.18,1.28a2.14,2.14,0,0,0-.76,3,2.36,2.36,0,0,0,1.66,1c.11.43.22.81.31,1.11ZM43.43,32l-1.78-1.69,1.78-1.68,1.78,1.68Zm9-4.91c1.26.08,2.27,1.54,2.27,3.35s-1,3.27-2.27,3.35h-.1c-1.26-.08-2.27-1.54-2.27-3.35s1-3.27,2.27-3.35Zm9,4.91-1.78-1.69,1.78-1.68,1.78,1.68Zm.73-4.4c.09-.3.19-.68.31-1.12a2.24,2.24,0,0,0,2-2.49,2.21,2.21,0,0,0-1.09-1.57q.09-.62.18-1.29a1.64,1.64,0,0,0,1.16-2.07,1.68,1.68,0,0,0-.95-1c0-.41,0-.83,0-1.24a1.37,1.37,0,0,0,.57-1.9,1.52,1.52,0,0,0-.85-.66c0-.24-.14-.65-.2-.88,6.89-2.12,8.13,3.81,8.13,3.81a7.62,7.62,0,0,1,.36,1.77,1.38,1.38,0,0,0-.86,1.8,1.44,1.44,0,0,0,.79.78c0,.38-.12.76-.19,1.12h0a1.72,1.72,0,0,0-1.76,1.66,1.65,1.65,0,0,0,.9,1.45c-.32.88-.62,1.54-.77,1.85Zm7.5,3.74-1.09-1,1.09-1,1.09,1Zm6.83-3.74H70.91c.16-.41.39-1,.62-1.65a1.7,1.7,0,0,0,1.67-1.73,1.65,1.65,0,0,0-.81-1.32c.09-.42.17-.86.24-1.3a1.39,1.39,0,0,0,1.09-1.68,1.44,1.44,0,0,0-1-1,8.22,8.22,0,0,0-.38-2.14l-.15-.39c4.22.19,5.39,5.24,5.39,5.24a9.38,9.38,0,0,1-1.13,6ZM38.34,49.69H32.45v-.57c.17,0,.38,0,.64-.07a1.79,1.79,0,0,0,.51-.11.81.81,0,0,0,.41-.29.84.84,0,0,0,.12-.48v-7.7l-3.74,9.05h-1c-.05-.16-.16-.47-.35-.94s-.32-.86-.44-1.14l-2.75-7.08v6.27A5.7,5.7,0,0,0,26,48a1.2,1.2,0,0,0,.41.69,2.11,2.11,0,0,0,.69.29,5,5,0,0,0,.69.16v.57H23.13v-.57l.63-.1a1.7,1.7,0,0,0,.71-.26,1.06,1.06,0,0,0,.41-.69A7,7,0,0,0,25,46.71v-5.1a2.06,2.06,0,0,0-.12-.78,1.18,1.18,0,0,0-.37-.49,1.65,1.65,0,0,0-.63-.29,4.81,4.81,0,0,0-.65-.08V39.4h5l2.68,6.78,2.26-5.5a6.14,6.14,0,0,0,.22-.73,4.88,4.88,0,0,0,.12-.55h4.82V40l-.52.05a4.7,4.7,0,0,0-.51.12.61.61,0,0,0-.4.3,1.14,1.14,0,0,0-.1.45v7.29a1,1,0,0,0,.1.44.72.72,0,0,0,.4.3,2.83,2.83,0,0,0,.5.13l.54.08Zm12.93,0H45.34v-.57a6.3,6.3,0,0,0,1-.14c.37-.07.56-.16.56-.28a.57.57,0,0,0,0-.13.8.8,0,0,0-.07-.2l-.92-2.13H42.11c-.08.2-.18.43-.28.7s-.2.5-.28.71a4,4,0,0,0-.17.59,2,2,0,0,0,0,.25c0,.15.12.28.37.4a4.61,4.61,0,0,0,1.23.23v.57H38.5v-.57a5.22,5.22,0,0,0,.57-.07,1.64,1.64,0,0,0,.5-.17,2.09,2.09,0,0,0,.54-.43,2.34,2.34,0,0,0,.36-.61l1.78-4.08,2-4.51h1.53q1.5,3.49,2.35,5.52c.57,1.36,1.06,2.48,1.45,3.37a1.53,1.53,0,0,0,.26.4,1.79,1.79,0,0,0,.43.34,1.85,1.85,0,0,0,.5.17,3,3,0,0,0,.52.07Zm-5.72-4.16L44,41.8l-1.55,3.72Zm18.3,4.16H59.67q-1.08-1.56-1.8-2.49c-.48-.62-1.07-1.34-1.78-2.15h-.42v3.12a1,1,0,0,0,.1.45.81.81,0,0,0,.4.3l.45.12a4.72,4.72,0,0,0,.54.08v.57h-5.8v-.57l.58-.06a2.27,2.27,0,0,0,.52-.09.73.73,0,0,0,.39-.3.87.87,0,0,0,.1-.45V41a1,1,0,0,0-.08-.44.81.81,0,0,0-.41-.31,3.8,3.8,0,0,0-.58-.15l-.52-.1v-.57h6.1a6.42,6.42,0,0,1,3.11.61,2,2,0,0,1,1.06,1.83A2.34,2.34,0,0,1,61,43.57a4.51,4.51,0,0,1-2,1c.35.42.76.91,1.22,1.48s.94,1.13,1.44,1.72c.16.18.38.42.65.69A1.91,1.91,0,0,0,63,49a3.58,3.58,0,0,0,.45.09l.39,0ZM58.63,42A1.79,1.79,0,0,0,58,40.53a2.78,2.78,0,0,0-1.73-.47h-.61v4.31h.59A2.48,2.48,0,0,0,58,43.81,2.28,2.28,0,0,0,58.63,42Zm11.24,7.65h-6v-.57l.61,0A1.77,1.77,0,0,0,65,49a.72.72,0,0,0,.38-.28.8.8,0,0,0,.1-.45V41a.84.84,0,0,0-.1-.44.72.72,0,0,0-.39-.31,3.29,3.29,0,0,0-.54-.14c-.21,0-.41-.08-.62-.11v-.57h6V40l-.57.06a3.84,3.84,0,0,0-.59.11.64.64,0,0,0-.4.3,1,1,0,0,0-.1.45v7.29a1,1,0,0,0,.1.45.76.76,0,0,0,.4.3,3.16,3.16,0,0,0,.53.13c.21,0,.42.06.63.07Zm11.06-9.15a5.22,5.22,0,0,1,1.28,1.68,5.33,5.33,0,0,1,.47,2.26,6.06,6.06,0,0,1-.4,2.14,5,5,0,0,1-1.15,1.75,5.72,5.72,0,0,1-1.86,1.18,7.38,7.38,0,0,1-4.78.06,5.67,5.67,0,0,1-1.86-1.08,5,5,0,0,1-1.74-3.87,5.61,5.61,0,0,1,.46-2.29,5.29,5.29,0,0,1,1.25-1.76,5.41,5.41,0,0,1,1.88-1.11,7.11,7.11,0,0,1,4.6,0,5.65,5.65,0,0,1,1.85,1Zm-2,7.37a5.24,5.24,0,0,0,.5-1.49,10.08,10.08,0,0,0,.15-1.9,11.32,11.32,0,0,0-.13-1.74A5.38,5.38,0,0,0,79,41.27a2.87,2.87,0,0,0-.87-1.06,2.44,2.44,0,0,0-3.47.85A7.17,7.17,0,0,0,74,44.58a10.09,10.09,0,0,0,.16,1.82,5.3,5.3,0,0,0,.5,1.5,2.73,2.73,0,0,0,.87,1,2.28,2.28,0,0,0,1.3.36,2.36,2.36,0,0,0,1.3-.36,2.7,2.7,0,0,0,.87-1ZM19,64.09h-5.9v-.57l.64-.07a2.29,2.29,0,0,0,.52-.11.78.78,0,0,0,.41-.3.88.88,0,0,0,.12-.48V54.87L11,63.92h-1c-.05-.16-.16-.47-.34-1l-.44-1.13L6.54,54.76V61a5.22,5.22,0,0,0,.12,1.36,1.26,1.26,0,0,0,.41.69,2.11,2.11,0,0,0,.69.29,5.73,5.73,0,0,0,.69.16v.57H3.78v-.57l.62-.09a1.75,1.75,0,0,0,.71-.27,1,1,0,0,0,.41-.68,6.43,6.43,0,0,0,.11-1.38V56a2.09,2.09,0,0,0-.12-.78,1,1,0,0,0-.37-.48,1.6,1.6,0,0,0-.63-.3,4.62,4.62,0,0,0-.65-.08v-.57h5l2.68,6.78,2.26-5.5c.09-.24.16-.48.23-.73a4.86,4.86,0,0,0,.11-.55H19v.57a4.43,4.43,0,0,0-.51.06,3,3,0,0,0-.52.11.59.59,0,0,0-.39.3,1,1,0,0,0-.1.45v7.29a1,1,0,0,0,.1.44.8.8,0,0,0,.39.31,2.27,2.27,0,0,0,.5.12l.54.08Zm12.93,0H26v-.57a6.3,6.3,0,0,0,1-.14c.37-.07.56-.17.56-.28s0-.09,0-.13a1.18,1.18,0,0,0-.07-.2l-.93-2.13H22.76c-.09.19-.18.43-.29.69l-.27.72a3.86,3.86,0,0,0-.17.58,2.28,2.28,0,0,0,0,.26c0,.15.12.28.37.39a4.26,4.26,0,0,0,1.23.24v.57H19.15v-.57a3.72,3.72,0,0,0,.57-.08,1.41,1.41,0,0,0,.5-.17,1.7,1.7,0,0,0,.53-.42,2.26,2.26,0,0,0,.37-.61l1.78-4.08c.59-1.37,1.25-2.87,2-4.52H26.4c1,2.33,1.79,4.18,2.36,5.53s1,2.48,1.45,3.37a1.62,1.62,0,0,0,.25.39,1.48,1.48,0,0,0,.44.34,2,2,0,0,0,.5.18,4.46,4.46,0,0,0,.51.07ZM26.2,59.93,24.62,56.2l-1.55,3.73Zm11.52,4.45A6.79,6.79,0,0,1,35.48,64a5.37,5.37,0,0,1-1.82-1.07,4.65,4.65,0,0,1-1.19-1.69A5.42,5.42,0,0,1,32,59a5.5,5.5,0,0,1,.44-2.22,5.24,5.24,0,0,1,3.12-2.9,6.86,6.86,0,0,1,2.34-.41,6.55,6.55,0,0,1,1.65.21,7.42,7.42,0,0,1,1.26.48l.47-.4H42l.07,3.76h-.68A6.4,6.4,0,0,0,40,55a2.63,2.63,0,0,0-2-.81,2.42,2.42,0,0,0-2.19,1.2,6.44,6.44,0,0,0-.74,3.38,7.39,7.39,0,0,0,.25,2.09A4.16,4.16,0,0,0,36,62.3a2.7,2.7,0,0,0,1,.8,3.24,3.24,0,0,0,1.34.26,3.38,3.38,0,0,0,1.91-.55,5.2,5.2,0,0,0,1.53-1.67l.66.38a5.81,5.81,0,0,1-.76,1.14,4,4,0,0,1-1,.87,5,5,0,0,1-1.34.62,5.91,5.91,0,0,1-1.73.22Zm18.8-.29H50.64v-.57l.56,0a2.1,2.1,0,0,0,.5-.09.75.75,0,0,0,.39-.28.83.83,0,0,0,.11-.46V59.11H47.55v3.46a.89.89,0,0,0,.12.45.72.72,0,0,0,.38.3,2.83,2.83,0,0,0,.5.13l.57.08v.56H43.24v-.56l.56-.05a3,3,0,0,0,.54-.1.62.62,0,0,0,.39-.28.91.91,0,0,0,.1-.46V55.35a.68.68,0,0,0-.49-.73,3.54,3.54,0,0,0-.58-.17,4.71,4.71,0,0,0-.52-.09v-.57h5.88v.57a3.7,3.7,0,0,0-.57.07,3.61,3.61,0,0,0-.5.11.59.59,0,0,0-.4.3,1.13,1.13,0,0,0-.1.44v3.07H52.2v-3a.91.91,0,0,0-.1-.43.85.85,0,0,0-.4-.3,3.38,3.38,0,0,0-.54-.17,4.51,4.51,0,0,0-.53-.09v-.57h5.88v.57l-.55.06a4.88,4.88,0,0,0-.55.12.59.59,0,0,0-.39.3.86.86,0,0,0-.1.44v7.29A.74.74,0,0,0,55,63a.71.71,0,0,0,.39.31,2.42,2.42,0,0,0,.53.13,5.43,5.43,0,0,0,.57.07Zm12.86,0H63.45v-.57a6.43,6.43,0,0,0,1-.14c.37-.07.55-.17.55-.28A.53.53,0,0,0,65,63a.66.66,0,0,0-.06-.2L64,60.64H60.22c-.08.19-.18.43-.28.69s-.2.51-.27.72a3,3,0,0,0-.17.58,1.15,1.15,0,0,0,0,.26c0,.15.12.28.37.39a4.33,4.33,0,0,0,1.24.24v.57H56.62v-.57a3.72,3.72,0,0,0,.57-.08,1.56,1.56,0,0,0,.5-.17,2,2,0,0,0,.53-.42,2.51,2.51,0,0,0,.36-.61l1.78-4.08,2-4.52h1.53c1,2.33,1.79,4.18,2.35,5.53s1.06,2.48,1.45,3.37a1.72,1.72,0,0,0,.26.4,1.54,1.54,0,0,0,.43.33,1.88,1.88,0,0,0,.5.18,4.34,4.34,0,0,0,.52.07Zm-5.72-4.16L62.09,56.2l-1.55,3.73ZM82,64.09H77.79c-.72-1-1.32-1.88-1.8-2.5s-1.08-1.33-1.78-2.14h-.42v3.12a.84.84,0,0,0,.1.44.8.8,0,0,0,.39.31,3.45,3.45,0,0,0,.46.12l.53.08v.57h-5.8v-.57l.59-.06a1.78,1.78,0,0,0,.51-.1.7.7,0,0,0,.4-.29,1,1,0,0,0,.1-.45V55.35a1.07,1.07,0,0,0-.09-.43.76.76,0,0,0-.41-.31,3.7,3.7,0,0,0-.57-.16l-.53-.09v-.57h6.1a6.38,6.38,0,0,1,3.11.61,2,2,0,0,1,1.06,1.83A2.37,2.37,0,0,1,79.09,58a4.49,4.49,0,0,1-2,1c.34.43.75.93,1.21,1.49s1,1.13,1.45,1.72a9.11,9.11,0,0,0,.65.69,1.83,1.83,0,0,0,.72.5,3.58,3.58,0,0,0,.45.09,2.53,2.53,0,0,0,.38,0Zm-5.22-7.66a1.76,1.76,0,0,0-.61-1.5,2.7,2.7,0,0,0-1.73-.47h-.61v4.31h.59a2.58,2.58,0,0,0,1.74-.56,2.29,2.29,0,0,0,.63-1.78Zm15.05-1.58A4.63,4.63,0,0,1,94,59a4.51,4.51,0,0,1-.55,2.27A4.59,4.59,0,0,1,92,62.87a6.76,6.76,0,0,1-2.09.92,10,10,0,0,1-2.45.3H82v-.57c.17,0,.37,0,.62,0a2.11,2.11,0,0,0,.49-.09.74.74,0,0,0,.38-.29.91.91,0,0,0,.11-.45v-7.3a1,1,0,0,0-.1-.45.77.77,0,0,0-.39-.32,2.72,2.72,0,0,0-.62-.17l-.5-.06v-.56h5.79a9.48,9.48,0,0,1,2,.22,6.24,6.24,0,0,1,2,.84Zm-1.56,7.39a4.39,4.39,0,0,0,.55-1.39A8.69,8.69,0,0,0,91,59a7.37,7.37,0,0,0-.23-1.87A4.23,4.23,0,0,0,90,55.7a3.08,3.08,0,0,0-1.1-.92,3.42,3.42,0,0,0-1.51-.32H86.31V62.3a1.43,1.43,0,0,0,.07.46.81.81,0,0,0,.25.35,1.26,1.26,0,0,0,.44.24,2.12,2.12,0,0,0,.67.08,3.27,3.27,0,0,0,1.48-.3,2.52,2.52,0,0,0,1-.9Zm10.84,1.85H95v-.56l.61-.05a2.16,2.16,0,0,0,.56-.08.73.73,0,0,0,.38-.29.9.9,0,0,0,.1-.45v-7.3a1,1,0,0,0-.1-.44.69.69,0,0,0-.39-.3,2.64,2.64,0,0,0-.55-.15c-.24,0-.44-.09-.62-.11v-.57h6v.57l-.58.06a2.85,2.85,0,0,0-.58.12.6.6,0,0,0-.4.29,1,1,0,0,0-.1.45v7.29a.87.87,0,0,0,.1.45.72.72,0,0,0,.4.3,3.16,3.16,0,0,0,.53.13,6.17,6.17,0,0,0,.62.08ZM14.57,71H90.28" transform="translate(-0.03 0.01)" style="fill: #040405"/>
</svg>
