<?xml version="1.0" standalone="no"?>
<!DOCTYPE svg PUBLIC "-//W3C//DTD SVG 1.1//EN" "http://www.w3.org/Graphics/SVG/1.1/DTD/svg11.dtd" >
<svg>
<metadata>
Created by FontForge 20120731 at Tue Oct  6 06:47:18 2015
 By root
Copyright 1999 Double Alex Font Studio. For "Playboy" Russian edition. Confidential version. 
</metadata>
<defs>
<font id="PlumbBlackSoftC" horiz-adv-x="556" >
  <font-face 
    font-family="PlumbBlackSoftC"
    font-weight="900"
    font-stretch="normal"
    units-per-em="1000"
    panose-1="2 0 10 3 0 0 0 0 0 0"
    ascent="800"
    descent="-200"
    x-height="538"
    cap-height="712"
    bbox="-41 -186 1184 932"
    underline-thickness="50"
    underline-position="-100"
    unicode-range="U+0020-2265"
  />
<missing-glyph horiz-adv-x="1000" 
 />
    <glyph glyph-name=".notdef" horiz-adv-x="1000" 
 />
    <glyph glyph-name=".null" horiz-adv-x="0" 
 />
    <glyph glyph-name="nonmarkingreturn" horiz-adv-x="333" 
 />
    <glyph glyph-name="space" unicode=" " horiz-adv-x="222" 
 />
    <glyph glyph-name="exclam" unicode="!" horiz-adv-x="366" 
d="M298 94q0 -41 -27.5 -69t-67.5 -28q-39 0 -67 28t-28 67t28 67t67 28q38 0 66.5 -28t28.5 -65zM303 682l-38 -415q-4 -30 -35 -30h-53q-31 0 -35 30l-39 415v3q0 12 9.5 19.5t25.5 7.5h130q16 0 25.5 -7.5t9.5 -19.5v-3z" />
    <glyph glyph-name="quotedbl" unicode="&#x22;" horiz-adv-x="488" 
d="M431 508q0 -30 -35 -30h-77q-35 0 -35 30v174q0 30 35 30h77q35 0 35 -30v-174zM204 508q0 -30 -35 -30h-77q-35 0 -35 30v174q0 30 35 30h77q35 0 35 -30v-174z" />
    <glyph glyph-name="numbersign" unicode="#" horiz-adv-x="713" 
d="M409 412h-90l-13 -88h90zM666 445q0 -35 -30 -35h-53l-13 -88h28q30 0 30 -35v-85q0 -35 -30 -35h-53l-22 -139q-5 -30 -35 -30h-104q-16 0 -25.5 7.5t-9.5 18.5v4l22 139h-90l-22 -139q-5 -30 -35 -30h-104q-16 0 -25.5 7.5t-9.5 18.5v4l22 139h-28q-30 0 -30 35v85
q0 35 30 35h53l13 88h-28q-30 0 -30 35v85q0 35 30 35h53l20 123q5 30 35 30h104q16 0 25.5 -7.5t9.5 -18.5v-4l-20 -123h90l20 123q5 30 35 30h104q16 0 25.5 -7.5t9.5 -18.5v-4l-20 -123h28q30 0 30 -35v-85z" />
    <glyph glyph-name="dollar" unicode="$" horiz-adv-x="633" 
d="M418 215q0 28 -14 42t-48 18v-122q33 7 47.5 22t14.5 40zM270 445v118q-62 -14 -62 -63q0 -46 62 -55zM590 222q0 -178 -214 -223v-88q0 -25 -30 -25h-66q-30 0 -30 25v83q-83 5 -134 22.5t-97 59.5q-7 6 -7 17q0 12 9 21l74 75q7 7 17 7q11 0 18 -7q38 -34 140 -39v132
l-39 5q-94 12 -143 63.5t-49 139.5q0 97 58 154t153 71v66q0 25 30 25h66q30 0 30 -25v-64q119 -10 186 -70q7 -7 7 -18t-7 -20l-69 -71q-8 -8 -21 -8t-18 5q-25 22 -98 29v-125l41 -6q100 -14 146.5 -65t46.5 -146z" />
    <glyph glyph-name="percent" unicode="%" horiz-adv-x="857" 
d="M812 133q0 -63 -41.5 -101t-109.5 -38q-69 0 -110 38t-41 101v95q0 63 41.5 101t109.5 38t109.5 -38t41.5 -101v-95zM649 686l-317 -665q-6 -13 -12.5 -17t-21.5 -4h-65q-37 0 -25 26l317 665q6 13 12.5 17t21.5 4h65q37 0 25 -26zM347 484q0 -63 -41.5 -101t-109.5 -38
q-69 0 -110 38t-41 101v95q0 63 41.5 101t109.5 38t109.5 -38t41.5 -101v-95zM696 137v87q0 39 -35 39t-35 -39v-87q0 -39 35 -39t35 39zM231 488v87q0 39 -35 39t-35 -39v-87q0 -39 35 -39t35 39z" />
    <glyph glyph-name="ampersand" unicode="&#x26;" horiz-adv-x="710" 
d="M360 168l-111 127q-24 -18 -33 -34t-9 -40q0 -35 23.5 -57t61.5 -22t68 26zM297 479q2 1 10.5 7t12 8.5t10.5 8.5t10 11t6 11.5t3 13.5q0 19 -12.5 30t-33.5 11q-44 0 -44 -40q0 -23 38 -61zM467 283l-84 97q66 46 84 67q36 41 36 96q0 79 -55 127t-146 48
q-95 0 -151 -47t-56 -127q0 -41 15 -74.5t52 -75.5q-56 -40 -84.5 -83t-28.5 -105q0 -101 62 -156.5t176 -55.5q57 0 92.5 12t79.5 46l20 -22q1 -1 5.5 -6t6 -6.5t6 -5.5t7 -5t7.5 -3.5t10 -3t11 -0.5h123q32 0 32 19q0 8 -7 16l-109 128q65 72 80 193v3q0 27 -35 27h-85
q-31 0 -35 -30q-4 -39 -29 -73z" />
    <glyph glyph-name="quotesingle" unicode="'" horiz-adv-x="262" 
d="M57 682q0 30 35 30h78q35 0 35 -30v-174q0 -30 -35 -30h-78q-35 0 -35 30v174z" />
    <glyph glyph-name="parenleft" unicode="(" horiz-adv-x="358" 
d="M294 -7l-69 -71q-8 -8 -22 -8q-12 0 -17 5q-72 71 -93 115.5t-21 128.5v386q0 84 21 128.5t93 115.5q5 5 17 5q14 0 22 -8l69 -71q7 -9 7 -20t-7 -18q-33 -33 -45.5 -59.5t-12.5 -78.5v-374q0 -52 12.5 -78.5t45.5 -59.5q7 -7 7 -18t-7 -20z" />
    <glyph glyph-name="parenright" unicode=")" horiz-adv-x="358" 
d="M286 163q0 -84 -21 -128.5t-93 -115.5q-5 -5 -17 -5q-14 0 -22 8l-69 71q-7 9 -7 20t7 18q33 33 45.5 59.5t12.5 78.5v374q0 52 -12.5 78.5t-45.5 59.5q-7 7 -7 18t7 20l69 71q8 8 22 8q12 0 17 -5q72 -71 93 -115.5t21 -128.5v-386z" />
    <glyph glyph-name="asterisk" unicode="*" horiz-adv-x="506" 
d="M459 453l-56 -97l-99 64l5 -118h-112l5 118l-99 -64l-56 97l105 54l-105 54l56 97l99 -64l-5 118h112l-5 -118l99 64l56 -97l-105 -54z" />
    <glyph glyph-name="plus" unicode="+" 
d="M513 236q0 -30 -25 -30h-133v-133q0 -25 -30 -25h-94q-30 0 -30 25v133h-133q-25 0 -25 30v94q0 30 25 30h133v133q0 25 30 25h94q30 0 30 -25v-133h133q25 0 25 -30v-94z" />
    <glyph glyph-name="comma" unicode="," horiz-adv-x="308" 
d="M25 -78l40 210q5 25 15 35.5t32 10.5h101q32 0 32 -25q0 -11 -6 -27l-65 -192q-6 -18 -9.5 -26t-15 -15t-30.5 -7h-66q-29 0 -29 25q0 7 1 11z" />
    <glyph glyph-name="hyphenminus" unicode="-" horiz-adv-x="426" 
d="M383 248q0 -30 -25 -30h-290q-25 0 -25 30v94q0 30 25 30h290q25 0 25 -30v-94z" />
    <glyph glyph-name="period" unicode="." horiz-adv-x="308" 
d="M259 104q0 -45 -30.5 -76t-74.5 -31t-74.5 30.5t-30.5 74.5t30.5 74.5t74.5 30.5q43 0 74 -30.5t31 -72.5z" />
    <glyph glyph-name="slash" unicode="/" horiz-adv-x="431" 
d="M425 760l-269 -813q-4 -13 -11 -17t-23 -4h-92q-27 0 -27 16q0 2 2 10l269 813q4 13 11 17t23 4h92q27 0 27 -16q0 -2 -2 -10z" />
    <glyph glyph-name="zero" unicode="0" 
d="M507 216q0 -98 -64 -160t-165 -62t-165 62t-64 160v280q0 98 64 160t165 62t165 -62t64 -160v-280zM213 215q0 -34 17.5 -53.5t47.5 -19.5t47.5 19.5t17.5 53.5v281q0 34 -18 54t-47 20q-30 0 -47.5 -20t-17.5 -54v-281z" />
    <glyph glyph-name="one" unicode="1" 
d="M406 30q0 -13 -8 -21.5t-22 -8.5h-104q-14 0 -22 8.5t-8 21.5v507l-113 -98q-16 -14 -28 -14q-11 0 -11 15v101q0 39 20 56l103 89q30 26 57 26h106q14 0 22 -8.5t8 -21.5v-652z" />
    <glyph glyph-name="two" unicode="2" 
d="M517 35q0 -15 -8 -25t-22 -10h-434v148l258 280q36 40 36 75q0 31 -17 49t-47 18q-29 0 -45 -14.5t-17 -28.5q-2 -30 -35 -30h-97q-35 0 -35 27q0 29 15 65q25 61 82 95t133 34q101 0 164 -59t63 -155q0 -50 -17.5 -85t-70.5 -91l-170 -180h234q15 0 22.5 -10.5
t7.5 -24.5v-78z" />
    <glyph glyph-name="three" unicode="3" 
d="M516 212q0 -99 -65 -158.5t-172 -59.5q-113 0 -179 66q-56 56 -56 134q0 27 35 27h97q27 0 35 -30q14 -49 68 -49q34 0 53.5 20t19.5 54t-21 55.5t-55 21.5q-13 0 -21.5 9.5t-8.5 25.5v72q0 35 30 35q31 0 49.5 18.5t18.5 49.5q0 29 -18.5 48t-46.5 19q-26 0 -42 -14
t-18 -27q-4 -30 -35 -30h-97q-35 0 -35 27q0 28 14 63q25 61 82 95t131 34q100 0 164.5 -60t64.5 -152q0 -60 -32 -101q-13 -17 -42 -37q26 -19 38.5 -32.5t23.5 -34.5q20 -38 20 -89z" />
    <glyph glyph-name="four" unicode="4" 
d="M536 124q0 -30 -30 -30h-29v-64q0 -13 -8 -21.5t-22 -8.5h-96q-14 0 -22 8.5t-8 21.5v64h-265q-30 0 -30 30v96q0 28 17 61l203 401q6 13 8.5 17t11 8.5t22.5 4.5h111q30 0 30 -19q0 -6 -5 -16l-218 -427h115v64q0 13 8 21.5t22 8.5h96q14 0 22 -8.5t8 -21.5v-64h29
q30 0 30 -30v-96z" />
    <glyph glyph-name="five" unicode="5" 
d="M512 246q0 -70 -15 -113t-51 -78q-64 -61 -165 -61q-79 0 -139.5 38t-80.5 110q-8 29 -8 52q0 27 35 27h97q31 0 35 -30q9 -49 61 -49q35 0 51 24t16 77q0 101 -67 101q-35 0 -59 -30q-15 -21 -34 -21h-95q-30 0 -30 30v359q0 30 30 30h374q30 0 30 -30v-88
q0 -30 -30 -30h-255v-110q41 28 99 28q95 0 148 -62.5t53 -173.5z" />
    <glyph glyph-name="six" unicode="6" 
d="M512 222q0 -103 -65 -165.5t-172 -62.5q-106 0 -171.5 62.5t-65.5 163.5q0 33 7 62q9 41 61 148l122 252q6 13 8.5 17t11 8.5t22.5 4.5h111q30 0 30 -19q0 -6 -5 -16l-124 -244q15 5 36 5q83 0 138.5 -61.5t55.5 -154.5zM348 221q0 38 -20 60.5t-53 22.5t-53 -22t-20 -59
t20 -59t53 -22q32 0 52.5 22t20.5 57z" />
    <glyph glyph-name="seven" unicode="7" 
d="M522 586q0 -22 -15 -60l-195 -496q-6 -16 -14 -23t-28 -7h-111q-30 0 -30 19q0 4 5 16l208 529h-152v-82q0 -13 -8 -21.5t-22 -8.5h-96q-14 0 -22 8.5t-8 21.5v200q0 13 8 21.5t22 8.5h423q15 0 25 -8t10 -22v-96z" />
    <glyph glyph-name="eight" unicode="8" 
d="M437 366q44 -36 62 -71t18 -85q0 -98 -65 -157t-174 -59t-174 58.5t-65 156.5q0 52 19.5 88t60.5 69q-40 35 -56.5 67.5t-16.5 77.5q0 89 66 148t166 59t166 -59t66 -148q0 -45 -16.5 -77.5t-56.5 -67.5zM346 501q0 29 -19.5 49t-48.5 20q-28 0 -48 -20t-20 -48t20 -48
t48 -20t48 19.5t20 47.5zM353 216q0 32 -22 54t-53 22t-53 -22t-22 -53t22 -53t53 -22q30 0 52.5 22t22.5 52z" />
    <glyph glyph-name="nine" unicode="9" 
d="M518 492q0 -33 -7 -62q-9 -41 -61 -148l-122 -252q-6 -13 -8.5 -17t-11 -8.5t-22.5 -4.5h-111q-30 0 -30 19q0 6 5 16l124 244q-15 -5 -36 -5q-83 0 -138.5 61.5t-55.5 154.5q0 103 65 165.5t172 62.5q106 0 171.5 -62.5t65.5 -163.5zM354 489q0 37 -20 59t-53 22
q-32 0 -52.5 -22t-20.5 -57q0 -38 20 -60.5t53 -22.5t53 22t20 59z" />
    <glyph glyph-name="colon" unicode=":" horiz-adv-x="308" 
d="M259 414q0 -45 -30.5 -76t-74.5 -31t-74.5 30.5t-30.5 74.5t30.5 74.5t74.5 30.5q43 0 74 -30.5t31 -72.5zM259 104q0 -45 -30.5 -76t-74.5 -31t-74.5 30.5t-30.5 74.5t30.5 74.5t74.5 30.5q43 0 74 -30.5t31 -72.5z" />
    <glyph glyph-name="semicolon" unicode=";" horiz-adv-x="308" 
d="M25 -78l40 210q5 25 15 35.5t32 10.5h101q32 0 32 -25q0 -11 -6 -27l-65 -192q-6 -18 -9.5 -26t-15 -15t-30.5 -7h-66q-29 0 -29 25q0 7 1 11zM259 414q0 -45 -30.5 -76t-74.5 -31t-74.5 30.5t-30.5 74.5t30.5 74.5t74.5 30.5q43 0 74 -30.5t31 -72.5z" />
    <glyph glyph-name="less" unicode="&#x3c;" 
d="M524 60q0 -26 -19 -26q-9 0 -25 6l-425 167q-25 10 -25 50v78q0 40 25 50l425 167q17 6 25 6q19 0 19 -26v-89q0 -35 -31 -46l-289 -101l289 -101q31 -11 31 -46v-89z" />
    <glyph glyph-name="equal" unicode="=" 
d="M507 370q0 -30 -25 -30h-408q-25 0 -25 30v94q0 30 25 30h408q25 0 25 -30v-94zM507 126q0 -30 -25 -30h-408q-25 0 -25 30v94q0 30 25 30h408q25 0 25 -30v-94z" />
    <glyph glyph-name="greater" unicode="&#x3e;" 
d="M524 257q0 -40 -25 -50l-425 -167q-16 -6 -25 -6q-19 0 -19 26v89q0 35 31 46l289 101l-289 101q-31 11 -31 46v89q0 26 19 26q9 0 25 -6l425 -167q25 -10 25 -50v-78z" />
    <glyph glyph-name="question" unicode="?" horiz-adv-x="538" 
d="M388 293l69 87q51 64 51 131q0 91 -62.5 149t-161.5 58q-73 0 -128 -33.5t-80 -92.5q-14 -35 -14 -62t35 -27h97q29 0 35 30q7 37 55 37q27 0 43.5 -16t16.5 -42q0 -28 -27 -59l-70 -82q-41 -48 -41 -111q0 -24 30 -24h113q21 0 24 27q4 16 15 30zM383 94
q0 -41 -27.5 -69t-67.5 -28q-39 0 -67 28t-28 67t28 67t67 28q38 0 66.5 -28t28.5 -65z" />
    <glyph glyph-name="at" unicode="@" horiz-adv-x="784" 
d="M735 449q0 76 -15 123.5t-49 81.5t-82.5 49t-125.5 15h-142q-77 0 -125.5 -15t-82.5 -49t-49 -81.5t-15 -123.5v-278q0 -64 17 -104q11 -26 29 -50.5t37 -24.5q14 0 22 8l73 73q7 7 7 20q0 11 -7 18q-22 22 -22 70v262q0 127 127 127h120q127 0 127 -127v-26
q-47 41 -108 41q-74 0 -120 -44q-27 -26 -37.5 -63.5t-10.5 -107.5v-17q0 -66 6 -110q8 -56 56 -89t107 -33q35 0 58 11.5t54 38.5v-19q0 -25 30 -25h91q30 0 30 25v424zM579 227q0 50 -14.5 72.5t-45.5 22.5q-32 0 -46 -23.5t-14 -78.5q0 -90 60 -90q32 0 46 22.5t14 74.5z
" />
    <glyph glyph-name="A" unicode="A" horiz-adv-x="653" 
d="M391 252l-60 190l-64 -190h124zM641 35q3 -9 3 -16q0 -19 -29 -19h-112q-20 0 -28.5 7t-13.5 23l-24 76h-219l-25 -76q-5 -16 -13.5 -23t-28.5 -7h-112q-29 0 -29 19q0 7 3 16l239 656q8 21 36 21h77q16 0 24 -4.5t14 -20.5z" />
    <glyph glyph-name="B" unicode="B" horiz-adv-x="653" 
d="M604 209q0 -95 -60.5 -152t-161.5 -57h-275q-14 0 -24.5 8.5t-10.5 21.5v652q0 30 35 30h260q104 0 165.5 -54t61.5 -146q0 -90 -78 -147q47 -30 67.5 -66t20.5 -90zM419 497q0 27 -16.5 42.5t-46.5 15.5h-109v-116h109q30 0 46.5 15.5t16.5 42.5zM429 220q0 29 -17 45.5
t-47 16.5h-118v-125h118q30 0 47 17t17 46z" />
    <glyph glyph-name="C" unicode="C" horiz-adv-x="547" 
d="M500 58q-70 -64 -179 -64q-123 0 -200 80q-53 55 -63 123q-9 70 -9 159v25q0 104 15.5 159t56.5 98q77 80 199 80q111 0 179 -64q8 -8 8 -19q0 -13 -10 -23l-71 -71q-9 -9 -25 -9q-12 0 -16 4q-27 26 -65 26q-46 0 -69 -30q-16 -20 -21.5 -60t-5.5 -132q0 -126 27 -160
q24 -30 69 -30q36 0 62 23q9 7 18 7q14 0 24 -10l72 -71q11 -11 11 -25q0 -10 -7 -16z" />
    <glyph glyph-name="D" unicode="D" horiz-adv-x="651" 
d="M602 356q0 -116 -7 -162q-4 -30 -22.5 -64.5t-44.5 -59.5q-71 -70 -192 -70h-229q-14 0 -24.5 8.5t-10.5 21.5v652q0 30 35 30h229q120 0 192 -70q40 -40 57 -90t17 -131v-65zM427 336v35q0 72 -3.5 100t-15.5 45q-27 40 -84 40h-77v-400h77q57 0 84 40q19 29 19 140z
" />
    <glyph glyph-name="E" unicode="E" horiz-adv-x="608" 
d="M526 0h-419q-14 0 -24.5 9t-10.5 21v652q0 12 11 21t24 9h419q14 0 22 -10t8 -25v-86q0 -14 -7.5 -24.5t-22.5 -10.5h-279v-119h234q30 0 30 -35v-86q0 -14 -8 -24.5t-22 -10.5h-234v-125h279q14 0 22 -10.5t8 -24.5v-86q0 -15 -8 -25t-22 -10z" />
    <glyph glyph-name="F" unicode="F" horiz-adv-x="596" 
d="M107 0q-14 0 -24.5 8.5t-10.5 21.5v652q0 30 35 30h419q14 0 22 -11t8 -24v-86q0 -13 -9 -24t-21 -11h-279v-125h234q30 0 30 -35v-86q0 -16 -8.5 -25.5t-21.5 -9.5h-234v-245q0 -12 -11 -21t-24 -9h-105z" />
    <glyph glyph-name="G" unicode="G" horiz-adv-x="633" 
d="M591 314q0 -91 -15.5 -144t-54.5 -94q-79 -82 -201 -82t-199 80q-32 34 -49 81t-20 83t-3 95v23v25q0 105 15 159.5t57 97.5q77 80 203 80q118 0 193 -69q11 -10 11 -24t-10 -24l-68 -68q-11 -11 -27 -11q-14 0 -26 10q-33 30 -76 30q-26 0 -44.5 -10t-28.5 -24
t-15.5 -36t-7 -38.5t-1.5 -37.5v-30v-48q0 -125 26 -158q24 -30 71 -30q45 0 70.5 28t25.5 78v8h-68q-14 0 -22 10.5t-8 24.5v76q0 14 8 24.5t22 10.5h212q14 0 22 -10.5t8 -24.5v-61z" />
    <glyph glyph-name="H" unicode="H" horiz-adv-x="680" 
d="M247 30q0 -13 -10.5 -21.5t-24.5 -8.5h-105q-14 0 -24.5 8.5t-10.5 21.5v652q0 30 35 30h105q35 0 35 -30v-244h186v244q0 30 35 30h105q35 0 35 -30v-652q0 -13 -10 -21.5t-24 -8.5h-106q-14 0 -24.5 8.5t-10.5 21.5v252h-186v-252z" />
    <glyph glyph-name="I" unicode="I" horiz-adv-x="319" 
d="M247 30q0 -13 -10.5 -21.5t-24.5 -8.5h-105q-14 0 -24.5 8.5t-10.5 21.5v652q0 30 35 30h105q35 0 35 -30v-652z" />
    <glyph glyph-name="J" unicode="J" horiz-adv-x="516" 
d="M454 244q0 -112 -75 -181t-197 -69q-106 0 -175 62q-9 8 -9 21q0 11 8 19l77 76q6 6 18 6q13 0 24 -8q24 -20 60 -20q45 0 69.5 25.5t24.5 72.5v434q0 30 35 30h105q35 0 35 -30v-438z" />
    <glyph glyph-name="K" unicode="K" horiz-adv-x="673" 
d="M651 37q8 -13 8 -22q0 -15 -28 -15h-130q-33 0 -49 30l-147 262l-60 -69v-193q0 -13 -10.5 -21.5t-24.5 -8.5h-103q-14 0 -24.5 8.5t-10.5 21.5v652q0 30 35 30h103q35 0 35 -30v-222l183 224q16 20 24.5 24t27.5 4h147q22 0 22 -13q0 -6 -8 -16l-219 -259z" />
    <glyph glyph-name="L" unicode="L" horiz-adv-x="576" 
d="M546 35q0 -15 -8 -25t-22 -10h-409q-14 0 -24.5 8.5t-10.5 21.5v652q0 30 35 30h105q35 0 35 -30v-526h269q14 0 22 -10.5t8 -24.5v-86z" />
    <glyph glyph-name="M" unicode="M" horiz-adv-x="808" 
d="M736 30q0 -13 -10.5 -21.5t-24.5 -8.5h-105q-14 0 -24.5 8.5t-10.5 21.5v311l-88 -153q-13 -23 -35 -23h-66q-24 0 -37 22l-88 154v-311q0 -13 -10.5 -21.5t-24.5 -8.5h-105q-14 0 -24.5 8.5t-10.5 21.5v652q0 30 35 30h110q27 0 40 -25l147 -289l147 289q13 25 40 25
h110q35 0 35 -30v-652z" />
    <glyph glyph-name="N" unicode="N" horiz-adv-x="700" 
d="M628 30q0 -30 -35 -30h-90q-29 0 -44 25l-212 333v-328q0 -13 -10.5 -21.5t-24.5 -8.5h-105q-14 0 -24.5 8.5t-10.5 21.5v652q0 30 35 30h90q29 0 44 -25l212 -333v328q0 13 10 21.5t24 8.5h106q14 0 24.5 -8.5t10.5 -21.5v-652z" />
    <glyph glyph-name="O" unicode="O" horiz-adv-x="640" 
d="M591 356q0 -59 -1 -80t-6.5 -66t-21.5 -76t-43 -60q-76 -80 -198 -80q-123 0 -200 80q-34 35 -51 85t-19 82.5t-2 94.5v45q0 105 15 159.5t57 97.5q76 80 198 80q123 0 200 -80q72 -75 72 -219v-63zM250 531q-26 -34 -26 -145v-49q0 -122 26 -155q26 -32 70 -32t70 32
q26 33 26 155v49q0 111 -26 145q-25 31 -70 31t-70 -31z" />
    <glyph glyph-name="P" unicode="P" horiz-adv-x="627" 
d="M597 483q0 -100 -68.5 -164.5t-174.5 -64.5h-107v-224q0 -13 -10.5 -21.5t-24.5 -8.5h-105q-14 0 -24.5 8.5t-10.5 21.5v652q0 30 35 30h247q106 0 174.5 -64.5t68.5 -164.5zM422 483q0 31 -21.5 51.5t-54.5 20.5h-99v-144h99q33 0 54.5 20.5t21.5 51.5z" />
    <glyph glyph-name="Q" unicode="Q" horiz-adv-x="640" 
d="M412 251q4 38 4 113q0 77 -5.5 112.5t-20.5 54.5q-25 31 -70 31t-70 -31q-26 -34 -26 -155v-20v-19v-20q0 -33 2.5 -56t10.5 -52t28.5 -44t51.5 -15h2q3 0 15 1l-30 30q-7 7 -7 15t7 15l58 58q8 8 16 8t15 -7zM587 46l-59 -59q-7 -7 -14 -7q-9 0 -18 9l-38 38
q-63 -33 -137 -33q-123 0 -200 80q-44 46 -58 107t-14 175v25q0 105 15 159.5t57 97.5q76 80 198 80q123 0 200 -80q53 -55 63 -123q9 -61 9 -159v-23q0 -107 -15 -160q-7 -26 -26 -60l35 -35q9 -9 9 -17t-7 -15z" />
    <glyph glyph-name="R" unicode="R" horiz-adv-x="652" 
d="M422 483q0 31 -21.5 51.5t-54.5 20.5h-99v-144h99q33 0 54.5 20.5t21.5 51.5zM616 37q7 -13 7 -22q0 -15 -27 -15h-130q-35 0 -49 30l-111 235h-59v-235q0 -13 -10.5 -21.5t-24.5 -8.5h-105q-14 0 -24.5 8.5t-10.5 21.5v652q0 30 35 30h247q106 0 174.5 -64.5
t68.5 -163.5q0 -81 -52 -139q-21 -23 -64 -48z" />
    <glyph glyph-name="S" unicode="S" horiz-adv-x="593" 
d="M550 222q0 -107 -77 -167.5t-212 -60.5q-152 0 -242 82q-7 6 -7 17q0 12 9 21l74 75q7 7 17 7q11 0 18 -7q44 -39 146 -39t102 65q0 51 -61 60l-86 12q-192 27 -192 203q0 106 72 167t197 61q136 0 215 -71q7 -7 7 -18t-7 -20l-69 -71q-8 -8 -21 -8t-18 5q-34 30 -108 30
q-47 0 -73 -17t-26 -48q0 -46 63 -55l86 -12q99 -13 146 -64.5t47 -146.5z" />
    <glyph glyph-name="T" unicode="T" horiz-adv-x="585" 
d="M555 591q0 -14 -7.5 -24.5t-22.5 -10.5h-145v-526q0 -13 -10.5 -21.5t-24.5 -8.5h-105q-14 0 -24.5 8.5t-10.5 21.5v526h-145q-15 0 -22.5 10.5t-7.5 24.5v86q0 15 8 25t22 10h465q14 0 22 -10t8 -25v-86z" />
    <glyph glyph-name="U" unicode="U" horiz-adv-x="660" 
d="M600 250q0 -111 -76.5 -183.5t-194.5 -72.5q-117 0 -193 72t-76 184v432q0 30 35 30h105q35 0 35 -30v-428q0 -49 25 -76.5t69 -27.5t70 28t26 76v428q0 30 35 30h105q35 0 35 -30v-432z" />
    <glyph glyph-name="V" unicode="V" horiz-adv-x="601" 
d="M589 677l-216 -652q-5 -15 -13.5 -20t-24.5 -5h-71q-29 0 -36 21l-216 656q-3 9 -3 16q0 19 29 19h112q20 0 27.5 -6.5t12.5 -23.5l111 -368l110 368q5 16 13.5 23t28.5 7h110q29 0 29 -19q0 -7 -3 -16z" />
    <glyph glyph-name="W" unicode="W" horiz-adv-x="906" 
d="M896 677l-179 -652q-4 -16 -11.5 -20.5t-23.5 -4.5h-82q-32 0 -39 21l-108 330l-107 -326q-5 -16 -12.5 -20.5t-23.5 -4.5h-82q-32 0 -38 21l-180 656q-2 6 -2 15q0 20 28 20h115q20 0 28 -6.5t12 -23.5l85 -346l109 355q7 21 38 21h62q16 0 24.5 -5t13.5 -20l107 -351
l85 346q4 17 12 23.5t28 6.5h115q28 0 28 -20q0 -9 -2 -15z" />
    <glyph glyph-name="X" unicode="X" horiz-adv-x="634" 
d="M612 35q6 -9 6 -17q0 -18 -31 -18h-122q-20 0 -29 7t-18 23l-101 189l-102 -189q-9 -16 -18 -23t-29 -7h-120q-32 0 -32 19q0 7 6 16l200 330l-187 312q-5 7 -5 16q0 19 31 19h125q14 0 22.5 -5t10 -7.5t9.5 -17.5l89 -171l88 171q6 13 8.5 17t11 8.5t22.5 4.5h127
q31 0 31 -19q0 -7 -6 -16l-187 -312z" />
    <glyph glyph-name="Y" unicode="Y" horiz-adv-x="605" 
d="M587 677l-197 -387v-260q0 -13 -10.5 -21.5t-24.5 -8.5h-105q-14 0 -24.5 8.5t-10.5 21.5v260l-197 387q-5 10 -5 16q0 19 31 19h117q20 0 27.5 -6.5t14.5 -23.5l100 -226l99 226q5 12 8 17t11.5 9t22.5 4h117q31 0 31 -19q0 -6 -5 -16z" />
    <glyph glyph-name="Z" unicode="Z" horiz-adv-x="543" 
d="M513 35q0 -15 -8 -25t-22 -10h-418q-15 0 -25 8t-10 22v86q0 20 16 44l257 396h-231q-15 0 -22.5 10.5t-7.5 24.5v86q0 15 8 25t22 10h406q15 0 25 -8t10 -22v-86q0 -20 -16 -44l-258 -396h244q15 0 22.5 -10.5t7.5 -24.5v-86z" />
    <glyph glyph-name="bracketleft" unicode="[" horiz-adv-x="416" 
d="M376 -44q0 -13 -8.5 -21.5t-21.5 -8.5h-244q-14 0 -22 8.5t-8 21.5v800q0 30 30 30h244q15 0 22.5 -9t7.5 -21v-88q0 -13 -8.5 -21.5t-21.5 -8.5h-110v-564h110q15 0 22.5 -9t7.5 -21v-88z" />
    <glyph glyph-name="backslash" unicode="\" horiz-adv-x="431" 
d="M428 -58q0 -16 -27 -16h-92q-16 0 -23 4t-11 17l-269 813q-2 8 -2 10q0 16 27 16h92q16 0 23 -4t11 -17l269 -813q2 -8 2 -10z" />
    <glyph glyph-name="bracketright" unicode="]" horiz-adv-x="416" 
d="M344 -44q0 -13 -8 -21.5t-22 -8.5h-244q-13 0 -21.5 8.5t-8.5 21.5v88q0 12 7.5 21t22.5 9h110v564h-110q-13 0 -21.5 8.5t-8.5 21.5v88q0 12 7.5 21t22.5 9h244q30 0 30 -30v-800z" />
    <glyph glyph-name="asciicircum" unicode="^" horiz-adv-x="640" 
d="M566 392q0 -19 -26 -19h-101q-30 0 -46 31l-73 134l-73 -134q-10 -17 -19 -24t-27 -7h-101q-26 0 -26 19q0 13 6 25l150 276q14 25 52 25h78q36 0 50 -25l150 -276q6 -12 6 -25z" />
    <glyph glyph-name="underscore" unicode="_" horiz-adv-x="640" 
d="M640 -186h-640v108h640v-108z" />
    <glyph glyph-name="grave" unicode="`" horiz-adv-x="500" 
d="M290 610h-65q-17 0 -26 15l-99 152q-3 3 -3 6q0 7 15 7h125q23 0 26 -14l41 -151v-3l1 -2q0 -10 -15 -10z" />
    <glyph glyph-name="a" unicode="a" horiz-adv-x="536" 
d="M483 25q0 -25 -30 -25h-100q-30 0 -30 25v19q-29 -28 -54 -38.5t-64 -10.5q-81 0 -129.5 47t-48.5 125q0 73 49 115.5t134 42.5h109v14q0 36 -18.5 51.5t-62.5 15.5q-42 0 -67 -19q-9 -7 -19 -7t-18 8l-65 65q-9 9 -9 19q0 8 8 16q39 32 77.5 44t97.5 12q240 0 240 -195
v-324zM319 202v14h-83q-23 0 -37.5 -12t-14.5 -31q0 -45 61 -45q38 0 56 17.5t18 56.5z" />
    <glyph glyph-name="b" unicode="b" horiz-adv-x="569" 
d="M526 269q0 -84 -8 -138q-9 -55 -42 -88q-47 -49 -132 -49q-40 0 -67 11.5t-56 38.5v-19q0 -25 -30 -25h-99q-30 0 -30 25v662q0 25 30 25h104q30 0 30 -25v-188q49 45 118 45q83 0 132 -49q50 -51 50 -177v-49zM362 272q0 70 -15 97t-54 27q-16 0 -28.5 -5t-19.5 -17
t-11 -21.5t-6 -28t-2 -27.5v-28v-9q0 -66 15.5 -92t53.5 -26t52.5 28t14.5 102z" />
    <glyph glyph-name="c" unicode="c" horiz-adv-x="475" 
d="M448 64q0 -9 -9 -16q-67 -54 -159 -54q-117 0 -179.5 72t-62.5 208q0 128 63.5 199t178.5 71q92 0 159 -54q8 -6 8 -15q0 -10 -10 -20l-72 -72q-10 -10 -21 -10q-8 0 -15 6q-24 17 -49 17q-78 0 -78 -127t78 -127q28 0 51 19q7 5 14 5q9 0 19 -10l75 -75q9 -9 9 -17z" />
    <glyph glyph-name="d" unicode="d" horiz-adv-x="569" 
d="M507 25q0 -25 -30 -25h-99q-30 0 -30 25v19q-29 -27 -56 -38.5t-67 -11.5q-85 0 -132 49q-35 35 -42 88q-8 50 -8 138v24q0 83 11 128.5t39 73.5q47 49 131 49q68 0 119 -45v188q0 25 30 25h104q30 0 30 -25v-662zM343 272q0 70 -15 97t-54 27q-16 0 -28.5 -5t-19.5 -17
t-11 -21.5t-6 -28t-2 -27.5v-28v-9q0 -66 15.5 -92t53.5 -26t52.5 28t14.5 102z" />
    <glyph glyph-name="e" unicode="e" horiz-adv-x="559" 
d="M521 241q0 -25 -30 -25h-292q5 -84 100 -84q54 0 91 31q6 6 13 6q10 0 23 -13l60 -60q9 -9 9 -17q0 -7 -8 -15q-77 -70 -193 -70q-256 0 -256 275q0 127 65 201t177 74q108 0 174.5 -70t66.5 -185v-48zM359 325q-1 40 -22 62t-58 22t-58.5 -22.5t-21.5 -61.5h160z" />
    <glyph glyph-name="f" unicode="f" horiz-adv-x="358" 
d="M333 421q0 -30 -25 -30h-65v-366q0 -25 -30 -25h-104q-30 0 -30 25v366h-24q-25 0 -25 30v66q0 30 25 30h24v47q0 71 46.5 115t120.5 44h62q25 0 25 -30v-78q0 -30 -25 -30h-32q-33 0 -33 -33v-35h65q25 0 25 -30v-66z" />
    <glyph glyph-name="g" unicode="g" horiz-adv-x="561" 
d="M499 39q0 -100 -68.5 -159.5t-183.5 -59.5q-107 0 -175 55q-8 6 -8 15q0 10 10 20l61 61q12 12 24 12q6 0 14 -5q30 -20 73 -20q42 0 65.5 21.5t23.5 60.5v39q-51 -45 -115 -45q-79 0 -127 48q-30 30 -40 70.5t-10 106.5v50q0 79 10.5 118.5t39.5 68.5q48 48 128 48
q38 0 63.5 -11t55.5 -39v19q0 25 30 25h98q17 0 24 -5.5t7 -19.5v-474zM335 290q0 58 -14.5 82t-49.5 24q-22 0 -36 -9t-19.5 -27t-7 -32.5t-1.5 -37.5v-7q0 -55 14.5 -78t49.5 -23q36 0 50 24t14 84z" />
    <glyph glyph-name="h" unicode="h" horiz-adv-x="573" 
d="M516 25q0 -25 -30 -25h-104q-30 0 -30 25v301q0 32 -17.5 51t-45.5 19t-45.5 -19t-17.5 -51v-301q0 -25 -30 -25h-104q-14 0 -22 7t-8 18v662q0 25 30 25h104q30 0 30 -25v-193q56 50 120 50q78 0 124 -53t46 -142v-324z" />
    <glyph glyph-name="i" unicode="i" horiz-adv-x="288" 
d="M226 25q0 -25 -30 -25h-104q-30 0 -30 25v488q0 16 6 20.5t24 4.5h104q30 0 30 -25v-488zM54 672q0 38 26 64t64 26q36 0 63 -26.5t27 -62.5q0 -38 -26 -64.5t-64 -26.5t-64 26t-26 64z" />
    <glyph glyph-name="j" unicode="j" horiz-adv-x="288" 
d="M226 -21q0 -71 -46.5 -115t-120.5 -44h-62q-25 0 -25 30v78q0 30 25 30h32q33 0 33 33v522q0 25 30 25h104q30 0 30 -25v-534zM54 672q0 38 26 64t64 26q36 0 63 -26.5t27 -62.5q0 -38 -26 -64.5t-64 -26.5t-64 26t-26 64z" />
    <glyph glyph-name="k" unicode="k" horiz-adv-x="573" 
d="M559 16q0 -16 -30 -16h-121q-25 0 -34.5 5.5t-17.5 18.5l-98 173l-32 -35v-137q0 -25 -30 -25h-104q-13 0 -21.5 6.5t-8.5 18.5v662q0 25 30 25h104q30 0 30 -25v-337l133 172q12 16 39 16h138q17 0 17 -12q0 -3 -4 -9l-179 -202l185 -287q4 -7 4 -12z" />
    <glyph glyph-name="l" unicode="l" horiz-adv-x="288" 
d="M226 25q0 -25 -30 -25h-104q-13 0 -21.5 6.5t-8.5 18.5v662q0 12 8.5 18.5t21.5 6.5h104q30 0 30 -25v-662z" />
    <glyph glyph-name="m" unicode="m" horiz-adv-x="875" 
d="M818 25q0 -25 -30 -25h-104q-30 0 -30 25v297q0 34 -18 54t-48 20t-48 -20t-18 -54v-297q0 -25 -30 -25h-104q-30 0 -30 25v297q0 34 -18 54t-48 20t-48 -20t-18 -54v-297q0 -25 -30 -25h-104q-30 0 -30 25v488q0 15 6.5 20t23.5 5h100q18 0 24 -4.5t6 -20.5v-19
q58 50 127 50q73 0 129 -57q37 31 69.5 44t79.5 13q89 0 140 -53.5t51 -146.5v-319z" />
    <glyph glyph-name="n" unicode="n" horiz-adv-x="579" 
d="M522 25q0 -25 -30 -25h-104q-30 0 -30 25v297q0 34 -18 54t-48 20t-48 -20t-18 -54v-297q0 -25 -30 -25h-104q-30 0 -30 25v488q0 25 30 25h100q19 0 24.5 -6t5.5 -19v-19q58 50 127 50q81 0 127 -53t46 -147v-319z" />
    <glyph glyph-name="o" unicode="o" horiz-adv-x="550" 
d="M507 270q0 -81 -13 -126.5t-46 -80.5q-66 -69 -173 -69q-109 0 -173 69q-34 36 -46.5 81.5t-12.5 130.5q0 75 13.5 120t45.5 80q64 69 173 69t173 -69q33 -35 46 -80.5t13 -124.5zM343 272q0 70 -15 97t-53 27t-53 -27t-15 -97q0 -75 14.5 -102.5t53.5 -27.5t53.5 27.5
t14.5 102.5z" />
    <glyph glyph-name="p" unicode="p" horiz-adv-x="569" 
d="M526 269q0 -84 -8 -138q-9 -55 -42 -88q-47 -49 -131 -49q-71 0 -119 45v-188q0 -25 -30 -25h-104q-30 0 -30 25v662q0 25 30 25h98q31 0 31 -25v-19q29 28 56 39t67 11q85 0 132 -49q50 -51 50 -177v-49zM362 272q0 70 -15 97t-54 27q-16 0 -28.5 -5t-19.5 -17
t-11 -21.5t-6 -28t-2 -27.5v-28v-9q0 -66 15.5 -92t53.5 -26t52.5 28t14.5 102z" />
    <glyph glyph-name="q" unicode="q" horiz-adv-x="569" 
d="M507 -149q0 -25 -30 -25h-104q-30 0 -30 25v188q-48 -45 -119 -45q-82 0 -131 49q-15 15 -25.5 39t-15 41.5t-7 53.5t-2.5 45.5v46.5v24q0 83 11 128.5t39 73.5q47 49 132 49q40 0 67 -11t56 -39v19q0 25 30 25h99q30 0 30 -25v-662zM343 272q0 70 -15 97t-54 27
q-43 0 -56 -35q-11 -26 -11 -101q0 -66 15.5 -92t53.5 -26t52.5 28t14.5 102z" />
    <glyph glyph-name="r" unicode="r" horiz-adv-x="475" 
d="M466 491q0 -10 -11 -23l-79 -80q-12 -13 -26 -13q-9 0 -15 5q-17 16 -42 16q-31 0 -49 -20t-18 -54v-297q0 -25 -30 -25h-104q-30 0 -30 25v488q0 25 30 25h99q18 0 24.5 -5.5t6.5 -19.5v-19q56 50 130 50q65 0 106 -37q8 -5 8 -16z" />
    <glyph glyph-name="s" unicode="s" horiz-adv-x="504" 
d="M477 176q0 -88 -64.5 -135t-186.5 -47q-65 0 -108 13t-86 47q-9 6 -9 18q0 13 13 26l58 58q12 12 25 12q7 0 17 -6q43 -29 104 -29q77 0 77 36q0 30 -39 33l-83 8q-156 15 -156 153q0 84 61.5 132.5t167.5 48.5q107 0 172 -46q11 -8 11 -21t-10 -23l-56 -56
q-11 -11 -23 -11q-11 0 -23 6q-32 16 -80 16q-62 0 -62 -33q0 -25 35 -28l83 -8q77 -8 119.5 -50.5t42.5 -113.5z" />
    <glyph glyph-name="t" unicode="t" horiz-adv-x="363" 
d="M323 30q0 -30 -25 -30h-57q-75 0 -121 44t-46 115v232h-24q-25 0 -25 30v66q0 30 22 30h27v129q0 12 9 18.5t21 6.5h104q30 0 30 -25v-129h60q25 0 25 -30v-66q0 -30 -25 -30h-60v-220q0 -33 33 -33h27q25 0 25 -30v-78z" />
    <glyph glyph-name="u" unicode="u" horiz-adv-x="579" 
d="M517 25q0 -25 -30 -25h-100q-30 0 -30 25v19q-58 -50 -127 -50q-81 0 -127 53t-46 147v319q0 25 30 25h104q19 0 24.5 -4.5t5.5 -20.5v-297q0 -34 18 -54t48 -20t48 20t18 54v297q0 25 30 25h104q18 0 24 -5.5t6 -19.5v-488z" />
    <glyph glyph-name="v" unicode="v" horiz-adv-x="521" 
d="M512 518q0 -6 -1 -8l-178 -483q-5 -13 -12 -19t-13 -7t-19 -1h-62q-16 0 -24.5 4.5t-14.5 21.5l-179 486q-2 8 -2 11q0 15 27 15h111q16 0 23 -4t11 -17l82 -258l81 258q7 21 37 21h110q23 0 23 -20z" />
    <glyph glyph-name="w" unicode="w" horiz-adv-x="780" 
d="M773 521q0 -6 -1 -9l-146 -485q-4 -13 -11 -19t-13 -7t-19 -1h-1h-65q-11 0 -17 1t-12 7t-10 18l-88 269l-88 -268q-4 -13 -11.5 -19t-13.5 -7t-19 -1h-65q-11 0 -17 1t-12 7t-10 18l-145 486q-1 3 -1 8q0 18 26 18h111q16 0 23.5 -4t10.5 -17l61 -258l84 253
q6 17 13.5 21.5t23.5 4.5h55q12 0 17.5 -1t12 -7t10.5 -19l84 -252l62 258q3 13 10.5 17t23.5 4h111q26 0 26 -17z" />
    <glyph glyph-name="x" unicode="x" 
d="M542 16q0 -16 -29 -16h-123q-31 0 -44 21l-69 115l-67 -115q-12 -21 -44 -21h-123q-29 0 -29 16q0 4 4 10l169 249l-163 237q-4 6 -4 10q0 16 29 16h123q32 0 44 -21l61 -109l63 109q12 21 44 21h123q28 0 28 -16q0 -6 -3 -10l-163 -237l169 -249q4 -6 4 -10z" />
    <glyph glyph-name="y" unicode="y" horiz-adv-x="514" 
d="M511 523q0 -3 -2 -11l-214 -576q-22 -61 -61.5 -88.5t-101.5 -27.5h-37q-25 0 -25 30v88q0 14 7 22t18 8h10q24 0 35.5 8.5t19.5 31.5l15 45l-170 459q-2 8 -2 11q0 15 27 15h111q16 0 23 -4t11 -17l84 -258l80 258q4 13 11 17t23 4h111q27 0 27 -15z" />
    <glyph glyph-name="z" unicode="z" horiz-adv-x="489" 
d="M449 30q0 -30 -25 -30h-364q-13 0 -21.5 8.5t-8.5 21.5v67q0 24 18 48l187 245h-168q-25 0 -25 30v88q0 30 25 30h352q30 0 30 -26v-70q0 -26 -18 -48l-191 -246h184q25 0 25 -30v-88z" />
    <glyph glyph-name="braceleft" unicode="{" horiz-adv-x="518" 
d="M478 -44q0 -13 -8.5 -21.5t-21.5 -8.5h-110q-75 0 -121 44t-46 115v119q0 42 -17 60t-56 18h-28q-13 0 -21.5 8.5t-8.5 21.5v88q0 12 7.5 21t22.5 9h28q39 0 56 18t17 60v119q0 71 46 115t121 44h110q15 0 22.5 -9t7.5 -21v-88q0 -13 -8.5 -21.5t-21.5 -8.5h-40
q-44 0 -58.5 -15.5t-14.5 -62.5v-104q0 -80 -73 -100q73 -20 73 -100v-104q0 -47 14.5 -62.5t58.5 -15.5h40q15 0 22.5 -9t7.5 -21v-88z" />
    <glyph glyph-name="bar" unicode="|" horiz-adv-x="364" 
d="M264 -44q0 -30 -30 -30h-104q-30 0 -30 30v800q0 30 30 30h104q30 0 30 -30v-800z" />
    <glyph glyph-name="braceright" unicode="}" horiz-adv-x="518" 
d="M478 312q0 -13 -8.5 -21.5t-21.5 -8.5h-28q-39 0 -56 -18t-17 -60v-119q0 -71 -46 -115t-121 -44h-110q-13 0 -21.5 8.5t-8.5 21.5v88q0 12 7.5 21t22.5 9h40q44 0 58.5 15.5t14.5 62.5v104q0 80 73 100q-73 20 -73 100v104q0 47 -14.5 62.5t-58.5 15.5h-40
q-13 0 -21.5 8.5t-8.5 21.5v88q0 12 7.5 21t22.5 9h110q75 0 121 -44t46 -115v-119q0 -42 17 -60t56 -18h28q15 0 22.5 -9t7.5 -21v-88z" />
    <glyph glyph-name="asciitilde" unicode="~" horiz-adv-x="646" 
d="M610 285q0 -10 -27 -33.5t-45 -33.5q-49 -31 -113 -31q-58 0 -119 34q-43 25 -84 25q-42 0 -75 -30q-7 -5 -14 -5q-9 0 -19 10l-71 69q-9 9 -9 17q0 10 27 33.5t45 33.5q50 31 113 31q58 0 119 -34q45 -25 84 -25q44 0 75 30q7 5 14 5q9 0 19 -10l71 -69q9 -9 9 -17z" />
    <glyph glyph-name="nbspace" unicode="&#xa0;" horiz-adv-x="222" 
 />
    <glyph glyph-name="sterling" unicode="&#xa3;" horiz-adv-x="597" 
d="M562 35q0 -15 -8 -25t-22 -10h-437v278h-33q-27 0 -27 27v72q0 27 27 27h33v64q0 112 75.5 181t197.5 69q59 0 104 -18q25 -10 48.5 -27.5t23.5 -34.5q0 -14 -10 -24l-65 -65q-11 -11 -27 -11q-14 0 -26 10q-14 14 -53 14q-44 0 -68.5 -25.5t-24.5 -72.5v-60h66
q27 0 27 -27v-72q0 -27 -27 -27h-66v-122h262q14 0 22 -10.5t8 -24.5v-86z" />
    <glyph glyph-name="currency" unicode="&#xa4;" horiz-adv-x="674" 
d="M627 114l-109 -109l-73 73q-56 -26 -108 -26t-108 26l-73 -73l-109 109l73 73q-26 56 -26 108t26 108l-73 73l109 109l73 -73q56 26 108 26t108 -26l73 73l109 -109l-73 -73q26 -56 26 -108t-26 -108zM432 293q0 41 -27.5 69t-67.5 28q-39 0 -67 -28t-28 -67t28 -67
t67 -28q38 0 66.5 28t28.5 65z" />
    <glyph glyph-name="brokenbar" unicode="&#xa6;" horiz-adv-x="364" 
d="M264 467q0 -30 -30 -30h-104q-30 0 -30 30v289q0 30 30 30h104q30 0 30 -30v-289zM264 -44q0 -30 -30 -30h-104q-30 0 -30 30v289q0 30 30 30h104q30 0 30 -30v-289z" />
    <glyph glyph-name="section" unicode="&#xa7;" horiz-adv-x="516" 
d="M475 292q0 -86 -81 -147q71 -45 71 -134q0 -86 -57 -138.5t-151 -52.5q-99 0 -156 57q-46 46 -46 103q0 27 35 27h93q22 0 29 -15q4 -10 17.5 -19.5t29.5 -9.5q22 0 36 11.5t14 29.5q0 36 -59 58l-54 20q-77 29 -114 68t-37 114q0 90 83 149q-66 42 -66 124
q0 84 54.5 132.5t148.5 48.5q97 0 147 -52q19 -19 32.5 -48t13.5 -54q0 -27 -35 -27h-90q-22 0 -28 15q-9 27 -45 27q-20 0 -33 -9.5t-13 -25.5q0 -28 56 -48l54 -20q77 -28 114 -68t37 -116zM319 278q0 32 -15.5 49.5t-43.5 17.5t-43.5 -17.5t-15.5 -48.5t15.5 -48.5
t43.5 -17.5t43.5 17t15.5 48z" />
    <glyph glyph-name="copyright" unicode="&#xa9;" horiz-adv-x="822" 
d="M773 363q0 -155 -105 -262t-257 -107q-150 0 -256 106t-106 256t106 256t256 106q147 0 254.5 -105.5t107.5 -249.5zM670 351q0 119 -72.5 194.5t-186.5 75.5q-113 0 -186 -75t-73 -190t73 -190t186 -75q111 0 185 74.5t74 185.5zM552 216q-36 -30 -67 -41
q-33 -11 -65 -11q-82 0 -131.5 52.5t-49.5 139.5t49.5 139.5t131.5 52.5q32 0 65 -11q32 -12 67 -41l-67 -67q-33 27 -64 27q-38 0 -58.5 -26.5t-20.5 -76.5q0 -46 21 -71.5t58 -25.5q31 0 64 27z" />
    <glyph glyph-name="guillemotleft" unicode="&#xab;" horiz-adv-x="672" 
d="M612 43q0 -13 -12 -13q-8 0 -14 6l-230 227q-5 5 -5 16q0 13 7 20l228 225q6 6 14 6q12 0 12 -13v-125q0 -35 -18 -52l-63 -60l63 -60q18 -17 18 -52v-125zM303 43q0 -13 -12 -13q-8 0 -14 6l-230 227q-5 5 -5 16q0 13 7 20l228 225q6 6 14 6q12 0 12 -13v-125
q0 -35 -18 -52l-63 -60l63 -60q18 -17 18 -52v-125z" />
    <glyph glyph-name="logicalnot" unicode="&#xac;" 
d="M513 113q0 -25 -30 -25h-94q-30 0 -30 25v125h-291q-25 0 -25 30v94q0 30 25 30h420q25 0 25 -30v-249z" />
    <glyph glyph-name="registered" unicode="&#xae;" horiz-adv-x="416" 
d="M396 533q0 -80 -54.5 -135.5t-133.5 -55.5q-78 0 -133 55t-55 133t55 133t133 55q76 0 132 -55t56 -130zM343 527q0 62 -38 101.5t-97 39.5q-58 0 -96 -39t-38 -99t38 -99t96 -39t96.5 38.5t38.5 96.5zM296 431h-61l-29 74h-16v-74h-54v197h88q29 0 48 -17.5t19 -45.5
q0 -34 -32 -51zM190 545h27q20 0 20 20q0 19 -20 19h-27v-39z" />
    <glyph glyph-name="degree" unicode="&#xb0;" horiz-adv-x="486" 
d="M439 537q0 -83 -57 -141t-139 -58q-81 0 -138.5 57.5t-57.5 138.5t57.5 138.5t138.5 57.5q80 0 138 -57t58 -136zM308 533q0 28 -19 47t-46 19t-46 -19t-19 -46t19 -46t46 -19q26 0 45.5 19t19.5 45z" />
    <glyph glyph-name="plusminus" unicode="&#xb1;" 
d="M507 401q0 -30 -25 -30h-127v-127q0 -25 -30 -25h-94q-30 0 -30 25v127h-127q-25 0 -25 30v94q0 30 25 30h127v127q0 25 30 25h94q30 0 30 -25v-127h127q25 0 25 -30v-94zM507 30q0 -30 -25 -30h-408q-25 0 -25 30v94q0 30 25 30h408q25 0 25 -30v-94z" />
    <glyph glyph-name="paragraph" unicode="&#xb6;" horiz-adv-x="707" 
d="M635 -149q0 -25 -30 -25h-104q-30 0 -30 25v705h-90v-705q0 -25 -30 -25h-104q-30 0 -30 25v447q-82 5 -134.5 64t-52.5 145q0 96 64 150.5t177 54.5h334q30 0 30 -25v-836z" />
    <glyph glyph-name="periodcentered" unicode="&#xb7;" horiz-adv-x="308" 
d="M259 297q0 -45 -30.5 -76t-74.5 -31t-74.5 31t-30.5 74t30.5 74t74.5 31q43 0 74 -30.5t31 -72.5z" />
    <glyph glyph-name="guillemotright" unicode="&#xbb;" horiz-adv-x="672" 
d="M630 279q0 -11 -5 -16l-230 -227q-6 -6 -14 -6q-12 0 -12 13v125q0 35 18 52l63 60l-63 60q-18 17 -18 52v125q0 13 12 13q8 0 14 -6l228 -225q7 -7 7 -20zM321 279q0 -11 -5 -16l-230 -227q-6 -6 -14 -6q-12 0 -12 13v125q0 35 18 52l63 60l-63 60q-18 17 -18 52v125
q0 13 12 13q8 0 14 -6l228 -225q7 -7 7 -20z" />
    <glyph glyph-name="divide" unicode="&#xf7;" 
d="M383 520q0 -45 -30.5 -76t-74.5 -31t-74.5 30.5t-30.5 74.5t30.5 74.5t74.5 30.5q43 0 74 -30.5t31 -72.5zM383 74q0 -45 -30.5 -76t-74.5 -31t-74.5 30.5t-30.5 74.5t30.5 74.5t74.5 30.5q43 0 74 -30.5t31 -72.5zM513 248q0 -30 -25 -30h-420q-25 0 -25 30v94
q0 30 25 30h420q25 0 25 -30v-94z" />
    <glyph glyph-name="florin" unicode="&#x192;" horiz-adv-x="441" 
d="M411 615q0 -30 -25 -30h-55q-33 0 -39 -33l-26 -148h65q25 0 25 -30v-66q0 -30 -25 -30h-86l-77 -432q-2 -12 -9.5 -16t-25.5 -4h-109q-21 0 -21 17q0 3 1 4l76 431h-24q-25 0 -25 30v66q0 30 25 30h46l28 160q13 71 66.5 115t128.5 44h61q25 0 25 -30v-78z" />
    <glyph glyph-name="Delta" unicode="&#x394;" horiz-adv-x="653" 
d="M653 0h-653l259 712h135zM424 146l-93 296l-99 -296h192z" />
    <glyph glyph-name="mu" unicode="&#x3bc;" horiz-adv-x="584" 
d="M522 25q0 -25 -30 -25h-100q-30 0 -30 25v19q-52 -50 -125 -50h-11v-143q0 -25 -30 -25h-104q-30 0 -30 25v662q0 25 30 25h104q30 0 30 -25v-297q0 -34 18 -54t48 -20t48 20t18 54v297q0 25 30 25h104q30 0 30 -25v-488z" />
    <glyph glyph-name="afii10023" unicode="&#x401;" horiz-adv-x="608" 
d="M505 827q0 -34 -23 -57.5t-57 -23.5q-33 0 -56.5 23.5t-23.5 56.5t23.5 56.5t56.5 23.5q32 0 56 -23.5t24 -55.5zM271 827q0 -34 -23 -57.5t-57 -23.5q-33 0 -56.5 23.5t-23.5 56.5t23.5 56.5t56.5 23.5q32 0 56 -23.5t24 -55.5zM556 35q0 -15 -8 -25t-22 -10h-419
q-14 0 -24.5 9t-10.5 21v652q0 12 11 21t24 9h419q14 0 22 -10t8 -25v-86q0 -14 -7.5 -24.5t-22.5 -10.5h-279v-119h234q30 0 30 -35v-86q0 -14 -8 -24.5t-22 -10.5h-234v-125h279q14 0 22 -10.5t8 -24.5v-86z" />
    <glyph glyph-name="afii10051" unicode="&#x402;" horiz-adv-x="750" 
d="M697 64q0 -247 -252 -247q-84 0 -120 26q-9 6 -9 21q0 7 8 19l71 90q6 6 18 6q2 0 14 -3t21 -3q32 0 53 25t21 70v146q0 29 -17 46t-47 17h-108v-247q0 -13 -10.5 -21.5t-24.5 -8.5h-105q-14 0 -24.5 8.5t-10.5 21.5v526h-115q-15 0 -22.5 10.5t-7.5 24.5v86q0 15 8 25
t22 10h465q14 0 22 -10t8 -25v-86q0 -14 -7.5 -24.5t-22.5 -10.5h-175v-125h149q87 0 142.5 -53.5t55.5 -135.5v-178z" />
    <glyph glyph-name="afii10052" unicode="&#x403;" 
d="M247 30q0 -12 -11 -21t-24 -9h-105q-14 0 -24.5 8.5t-10.5 21.5v652q0 30 35 30h400q14 0 22 -11t8 -24v-86q0 -13 -9 -24t-21 -11h-260v-526zM421 906l-90 -137q-8 -13 -14 -17.5t-21 -4.5h-59q-15 0 -15 12q0 3 2 11l38 139q5 18 31 18h115q18 0 18 -9q0 -5 -5 -12z
" />
    <glyph glyph-name="afii10053" unicode="&#x404;" horiz-adv-x="547" 
d="M507 74q0 -10 -7 -16q-70 -64 -179 -64q-123 0 -200 80q-53 55 -63 123q-9 70 -9 159v25q0 104 15.5 159t56.5 98q77 80 199 80q111 0 179 -64q8 -8 8 -19q0 -13 -10 -23l-71 -71q-9 -9 -25 -9q-12 0 -16 4q-27 26 -65 26q-46 0 -69 -30q-21 -29 -25 -99h142q30 0 30 -35
v-82q0 -14 -8 -24.5t-22 -10.5h-143q4 -73 26 -101q24 -30 69 -30q36 0 62 23q9 7 18 7q14 0 24 -10l72 -71q11 -11 11 -25z" />
    <glyph glyph-name="afii10054" unicode="&#x405;" horiz-adv-x="593" 
d="M550 222q0 -107 -77 -167.5t-212 -60.5q-152 0 -242 82q-7 6 -7 17q0 12 9 21l74 75q7 7 17 7q11 0 18 -7q44 -39 146 -39t102 65q0 51 -61 60l-86 12q-192 27 -192 203q0 106 72 167t197 61q136 0 215 -71q7 -7 7 -18t-7 -20l-69 -71q-8 -8 -21 -8t-18 5q-34 30 -108 30
q-47 0 -73 -17t-26 -48q0 -46 63 -55l86 -12q99 -13 146 -64.5t47 -146.5z" />
    <glyph glyph-name="afii10055" unicode="&#x406;" horiz-adv-x="319" 
d="M247 30q0 -13 -10.5 -21.5t-24.5 -8.5h-105q-14 0 -24.5 8.5t-10.5 21.5v652q0 30 35 30h105q35 0 35 -30v-652z" />
    <glyph glyph-name="afii10056" unicode="&#x407;" horiz-adv-x="319" 
d="M346 853q0 -34 -23 -57.5t-57 -23.5q-33 0 -56.5 23.5t-23.5 56.5t23.5 56.5t56.5 23.5q32 0 56 -23.5t24 -55.5zM132 853q0 -34 -23 -57.5t-57 -23.5q-33 0 -56.5 23.5t-23.5 56.5t23.5 56.5t56.5 23.5q32 0 56 -23.5t24 -55.5zM247 30q0 -13 -10.5 -21.5t-24.5 -8.5
h-105q-14 0 -24.5 8.5t-10.5 21.5v652q0 30 35 30h105q35 0 35 -30v-652z" />
    <glyph glyph-name="afii10057" unicode="&#x408;" horiz-adv-x="516" 
d="M454 244q0 -112 -75 -181t-197 -69q-106 0 -175 62q-9 8 -9 21q0 11 8 19l77 76q6 6 18 6q13 0 24 -8q24 -20 60 -20q45 0 69.5 25.5t24.5 72.5v434q0 30 35 30h105q35 0 35 -30v-438z" />
    <glyph glyph-name="afii10058" unicode="&#x409;" horiz-adv-x="988" 
d="M958 229q0 -100 -66.5 -164.5t-171.5 -64.5h-252q-14 0 -24.5 8.5t-10.5 21.5v526h-120l-7 -286q-3 -132 -61 -201t-164 -69h-47q-14 0 -22 10t-8 25v86q0 14 7 24.5t20 10.5q41 0 69.5 27.5t29.5 82.5l10 416q0 30 35 30h398q35 0 35 -30v-224h112q106 0 172 -64.5
t66 -164.5zM783 229q0 31 -21.5 51.5t-54.5 20.5h-99v-145h99q33 0 54.5 21t21.5 52z" />
    <glyph glyph-name="afii10059" unicode="&#x40a;" horiz-adv-x="988" 
d="M958 229q0 -100 -66.5 -164.5t-171.5 -64.5h-252q-14 0 -24.5 8.5t-10.5 21.5v272h-186v-272q0 -13 -10.5 -21.5t-24.5 -8.5h-105q-14 0 -24.5 8.5t-10.5 21.5v652q0 30 35 30h105q35 0 35 -30v-224h186v224q0 30 35 30h105q35 0 35 -30v-224h112q106 0 172 -64.5
t66 -164.5zM783 229q0 31 -21.5 51.5t-54.5 20.5h-99v-145h99q33 0 54.5 21t21.5 52z" />
    <glyph glyph-name="afii10060" unicode="&#x40b;" horiz-adv-x="750" 
d="M697 30q0 -13 -10.5 -21.5t-24.5 -8.5h-105q-14 0 -24.5 8.5t-10.5 21.5v194q0 29 -17 46t-47 17q-65 0 -108 -9v-248q0 -13 -10.5 -21.5t-24.5 -8.5h-105q-14 0 -24.5 8.5t-10.5 21.5v526h-115q-15 0 -22.5 10.5t-7.5 24.5v86q0 15 8 25t22 10h465q14 0 22 -10t8 -25
v-86q0 -14 -7.5 -24.5t-22.5 -10.5h-175v-124q67 12 159 12q75 0 131.5 -54.5t56.5 -134.5v-225z" />
    <glyph glyph-name="afii10061" unicode="&#x40c;" horiz-adv-x="673" 
d="M651 37q8 -13 8 -22q0 -15 -28 -15h-130q-33 0 -49 30l-147 262l-60 -69v-193q0 -13 -10.5 -21.5t-24.5 -8.5h-103q-14 0 -24.5 8.5t-10.5 21.5v652q0 30 35 30h103q35 0 35 -30v-222l183 224q16 20 24.5 24t27.5 4h147q22 0 22 -13q0 -6 -8 -16l-219 -259zM441 906
l-90 -137q-8 -13 -14 -17.5t-21 -4.5h-59q-15 0 -15 12q0 3 2 11l38 139q5 18 31 18h115q18 0 18 -9q0 -5 -5 -12z" />
    <glyph glyph-name="afii10062" unicode="&#x40e;" horiz-adv-x="601" 
d="M591 677l-234 -552q-23 -53 -68 -89t-108 -36h-67q-14 0 -22 10t-8 25v86q0 14 7.5 24.5t22.5 10.5h29q60 0 77 69l-208 452q-4 8 -4 16q0 19 30 19h122q20 0 27.5 -6.5t14.5 -23.5l105 -261l93 261q6 16 14 23t28 7h124q29 0 29 -19q0 -8 -4 -16zM468 878
q-2 -54 -44.5 -93t-116.5 -39t-116.5 39t-44.5 93q-2 25 25 25h50q11 0 17.5 -3t10 -7.5t9.5 -14.5q13 -22 49 -22t49 22q6 10 9.5 14.5t10 7.5t17.5 3h50q27 0 25 -25z" />
    <glyph glyph-name="afii10145" unicode="&#x40f;" horiz-adv-x="680" 
d="M608 30q0 -13 -8 -21.5t-22 -8.5h-154v-114q0 -13 -8 -21.5t-22 -8.5h-108q-14 0 -22 8.5t-8 21.5v114h-154q-14 0 -22 8.5t-8 21.5v652q0 30 30 30h115q30 0 30 -30v-526h186v526q0 30 30 30h115q30 0 30 -30v-652z" />
    <glyph glyph-name="afii10017" unicode="&#x410;" horiz-adv-x="653" 
d="M391 252l-60 190l-64 -190h124zM641 35q3 -9 3 -16q0 -19 -29 -19h-112q-20 0 -28.5 7t-13.5 23l-24 76h-219l-25 -76q-5 -16 -13.5 -23t-28.5 -7h-112q-29 0 -29 19q0 7 3 16l239 656q8 21 36 21h77q16 0 24 -4.5t14 -20.5z" />
    <glyph glyph-name="afii10018" unicode="&#x411;" horiz-adv-x="653" 
d="M604 229q0 -102 -64 -165.5t-174 -63.5h-259q-14 0 -24.5 8.5t-10.5 21.5v652q0 30 35 30h425q14 0 22 -10t8 -25v-86q0 -14 -7.5 -24.5t-22.5 -10.5h-285v-98h119q110 0 174 -63.5t64 -165.5zM429 229q0 31 -19.5 51.5t-51.5 20.5h-111v-144h111q32 0 51.5 20.5
t19.5 51.5z" />
    <glyph glyph-name="afii10019" unicode="&#x412;" horiz-adv-x="653" 
d="M604 209q0 -95 -60.5 -152t-161.5 -57h-275q-14 0 -24.5 8.5t-10.5 21.5v652q0 30 35 30h260q104 0 165.5 -54t61.5 -146q0 -90 -78 -147q47 -30 67.5 -66t20.5 -90zM419 497q0 27 -16.5 42.5t-46.5 15.5h-109v-116h109q30 0 46.5 15.5t16.5 42.5zM429 220q0 29 -17 45.5
t-47 16.5h-118v-125h118q30 0 47 17t17 46z" />
    <glyph glyph-name="afii10020" unicode="&#x413;" 
d="M247 30q0 -12 -11 -21t-24 -9h-105q-14 0 -24.5 8.5t-10.5 21.5v652q0 30 35 30h400q14 0 22 -11t8 -24v-86q0 -13 -9 -24t-21 -11h-260v-526z" />
    <glyph glyph-name="afii10021" unicode="&#x414;" horiz-adv-x="714" 
d="M695 -114q0 -13 -8 -21.5t-22 -8.5h-108q-14 0 -22 8.5t-8 21.5v114h-349v-114q0 -13 -8 -21.5t-22 -8.5h-108q-14 0 -22 8.5t-8 21.5v240q0 13 8 21.5t22 8.5h40q38 102 55 221.5t17 304.5q0 13 10 21.5t25 8.5h392q35 0 35 -30v-526h51q14 0 22 -8.5t8 -21.5v-240z
M439 156v400h-115v-20q0 -200 -64 -380h179z" />
    <glyph glyph-name="afii10022" unicode="&#x415;" horiz-adv-x="608" 
d="M556 35q0 -15 -8 -25t-22 -10h-419q-14 0 -24.5 9t-10.5 21v652q0 12 11 21t24 9h419q14 0 22 -10t8 -25v-86q0 -14 -7.5 -24.5t-22.5 -10.5h-279v-119h234q30 0 30 -35v-86q0 -14 -8 -24.5t-22 -10.5h-234v-125h279q14 0 22 -10.5t8 -24.5v-86z" />
    <glyph glyph-name="afii10024" unicode="&#x416;" horiz-adv-x="949" 
d="M938 15q0 -15 -28 -15h-130q-35 0 -49 30l-122 252l-48 -59v-193q0 -13 -10.5 -21.5t-24.5 -8.5h-103q-14 0 -24.5 8.5t-10.5 21.5v193l-48 59l-122 -252q-14 -30 -49 -30h-130q-28 0 -28 15q0 9 8 22l205 382l-189 264q-8 10 -8 16q0 13 22 13h139q27 0 35 -7
q8 -6 17 -21l148 -234v232q0 30 35 30h103q35 0 35 -30v-232l148 234q3 5 6 9t6 7t4.5 5t5.5 3.5t5 2t5.5 1t5.5 0.5h7h7h139q22 0 22 -13q0 -6 -8 -16l-189 -264l205 -382q8 -13 8 -22z" />
    <glyph glyph-name="afii10025" unicode="&#x417;" horiz-adv-x="590" 
d="M541 212q0 -97 -72.5 -157.5t-181.5 -60.5q-88 0 -156 20.5t-126 73.5l112 112q59 -50 161 -50q35 0 61 18t26 48q0 34 -24.5 55.5t-61.5 21.5h-94v142h94q36 0 57 18.5t21 49.5q0 28 -24 45t-55 17q-91 0 -138 -42l-110 110q94 85 257 85q103 0 173.5 -56t70.5 -146
q0 -46 -24 -85t-62 -63q44 -22 70 -63t26 -93z" />
    <glyph glyph-name="afii10026" unicode="&#x418;" horiz-adv-x="700" 
d="M628 30q0 -13 -10.5 -21.5t-24.5 -8.5h-106q-14 0 -24 8.5t-10 21.5v358l-213 -363q-15 -25 -44 -25h-89q-35 0 -35 30v652q0 13 10.5 21.5t24.5 8.5h105q14 0 24.5 -8.5t10.5 -21.5v-358l214 363q15 25 44 25h88q35 0 35 -30v-652z" />
    <glyph glyph-name="afii10027" unicode="&#x419;" horiz-adv-x="700" 
d="M628 30q0 -13 -10.5 -21.5t-24.5 -8.5h-106q-14 0 -24 8.5t-10 21.5v358l-213 -363q-15 -25 -44 -25h-89q-35 0 -35 30v652q0 13 10.5 21.5t24.5 8.5h105q14 0 24.5 -8.5t10.5 -21.5v-358l214 363q15 25 44 25h88q35 0 35 -30v-652zM513 878q-2 -54 -44.5 -93t-116.5 -39
t-116.5 39t-44.5 93q-2 25 25 25h50q11 0 17.5 -3t10 -7.5t9.5 -14.5q13 -22 49 -22t49 22q6 10 9.5 14.5t10 7.5t17.5 3h50q27 0 25 -25z" />
    <glyph glyph-name="afii10028" unicode="&#x41a;" horiz-adv-x="673" 
d="M651 37q8 -13 8 -22q0 -15 -28 -15h-130q-33 0 -49 30l-147 262l-60 -69v-193q0 -13 -10.5 -21.5t-24.5 -8.5h-103q-14 0 -24.5 8.5t-10.5 21.5v652q0 30 35 30h103q35 0 35 -30v-222l183 224q16 20 24.5 24t27.5 4h147q22 0 22 -13q0 -6 -8 -16l-219 -259z" />
    <glyph glyph-name="afii10029" unicode="&#x41b;" horiz-adv-x="680" 
d="M313 556h120h-120l-7 -286q-3 -132 -61 -201t-164 -69h-47q-14 0 -22 10t-8 25v86q0 14 7 24.5t20 10.5q41 0 69.5 27.5t29.5 82.5l10 416q0 30 35 30h398q35 0 35 -30v-652q0 -13 -10 -21.5t-24 -8.5h-106q-14 0 -24.5 8.5t-10.5 21.5v526h-120z" />
    <glyph glyph-name="afii10030" unicode="&#x41c;" horiz-adv-x="808" 
d="M736 30q0 -13 -10.5 -21.5t-24.5 -8.5h-105q-14 0 -24.5 8.5t-10.5 21.5v311l-88 -153q-13 -23 -35 -23h-66q-24 0 -37 22l-88 154v-311q0 -13 -10.5 -21.5t-24.5 -8.5h-105q-14 0 -24.5 8.5t-10.5 21.5v652q0 30 35 30h110q27 0 40 -25l147 -289l147 289q13 25 40 25
h110q35 0 35 -30v-652z" />
    <glyph glyph-name="afii10031" unicode="&#x41d;" horiz-adv-x="680" 
d="M247 30q0 -13 -10.5 -21.5t-24.5 -8.5h-105q-14 0 -24.5 8.5t-10.5 21.5v652q0 30 35 30h105q35 0 35 -30v-244h186v244q0 30 35 30h105q35 0 35 -30v-652q0 -13 -10 -21.5t-24 -8.5h-106q-14 0 -24.5 8.5t-10.5 21.5v252h-186v-252z" />
    <glyph glyph-name="afii10032" unicode="&#x41e;" horiz-adv-x="640" 
d="M591 356q0 -59 -1 -80t-6.5 -66t-21.5 -76t-43 -60q-76 -80 -198 -80q-123 0 -200 80q-34 35 -51 85t-19 82.5t-2 94.5v45q0 105 15 159.5t57 97.5q76 80 198 80q123 0 200 -80q72 -75 72 -219v-63zM416 337v49q0 111 -26 145q-25 31 -70 31t-70 -31q-26 -34 -26 -145
v-49q0 -122 26 -155q26 -32 70 -32t70 32q26 33 26 155z" />
    <glyph glyph-name="afii10033" unicode="&#x41f;" horiz-adv-x="680" 
d="M247 30q0 -13 -10.5 -21.5t-24.5 -8.5h-105q-14 0 -24.5 8.5t-10.5 21.5v652q0 30 35 30h466q35 0 35 -30v-652q0 -13 -10 -21.5t-24 -8.5h-106q-14 0 -24.5 8.5t-10.5 21.5v526h-186v-526z" />
    <glyph glyph-name="afii10034" unicode="&#x420;" horiz-adv-x="627" 
d="M597 483q0 -100 -68.5 -164.5t-174.5 -64.5h-107v-224q0 -13 -10.5 -21.5t-24.5 -8.5h-105q-14 0 -24.5 8.5t-10.5 21.5v652q0 30 35 30h247q106 0 174.5 -64.5t68.5 -164.5zM422 483q0 31 -21.5 51.5t-54.5 20.5h-99v-144h99q33 0 54.5 20.5t21.5 51.5z" />
    <glyph glyph-name="afii10035" unicode="&#x421;" horiz-adv-x="547" 
d="M500 58q-70 -64 -179 -64q-123 0 -200 80q-53 55 -63 123q-9 70 -9 159v25q0 104 15.5 159t56.5 98q77 80 199 80q111 0 179 -64q8 -8 8 -19q0 -13 -10 -23l-71 -71q-9 -9 -25 -9q-12 0 -16 4q-27 26 -65 26q-46 0 -69 -30q-16 -20 -21.5 -60t-5.5 -132q0 -126 27 -160
q24 -30 69 -30q36 0 62 23q9 7 18 7q14 0 24 -10l72 -71q11 -11 11 -25q0 -10 -7 -16z" />
    <glyph glyph-name="afii10036" unicode="&#x422;" horiz-adv-x="585" 
d="M555 591q0 -14 -7.5 -24.5t-22.5 -10.5h-145v-526q0 -13 -10.5 -21.5t-24.5 -8.5h-105q-14 0 -24.5 8.5t-10.5 21.5v526h-145q-15 0 -22.5 10.5t-7.5 24.5v86q0 15 8 25t22 10h465q14 0 22 -10t8 -25v-86z" />
    <glyph glyph-name="afii10037" unicode="&#x423;" horiz-adv-x="601" 
d="M591 677l-234 -552q-23 -53 -68 -89t-108 -36h-67q-14 0 -22 10t-8 25v86q0 14 7.5 24.5t22.5 10.5h29q60 0 77 69l-208 452q-4 8 -4 16q0 19 30 19h122q20 0 27.5 -6.5t14.5 -23.5l105 -261l93 261q6 16 14 23t28 7h124q29 0 29 -19q0 -8 -4 -16z" />
    <glyph glyph-name="afii10038" unicode="&#x424;" horiz-adv-x="829" 
d="M789 371q0 -137 -74.5 -221t-212.5 -91v-35q0 -30 -30 -30h-115q-30 0 -30 30v35q-138 7 -212.5 91t-74.5 221q0 131 78 208t209 84v25q0 30 30 30h115q30 0 30 -30v-25q131 -7 209 -84t78 -208zM614 363q0 71 -27 106t-85 40v-296q112 13 112 150zM327 213v296
q-58 -5 -85 -40t-27 -106q0 -137 112 -150z" />
    <glyph glyph-name="afii10039" unicode="&#x425;" horiz-adv-x="634" 
d="M612 35q6 -9 6 -17q0 -18 -31 -18h-122q-20 0 -29 7t-18 23l-101 189l-102 -189q-9 -16 -18 -23t-29 -7h-120q-32 0 -32 19q0 7 6 16l200 330l-187 312q-5 7 -5 16q0 19 31 19h125q14 0 22.5 -5t10 -7.5t9.5 -17.5l89 -171l88 171q6 13 8.5 17t11 8.5t22.5 4.5h127
q31 0 31 -19q0 -7 -6 -16l-187 -312z" />
    <glyph glyph-name="afii10040" unicode="&#x426;" horiz-adv-x="708" 
d="M689 -114q0 -13 -8 -21.5t-22 -8.5h-108q-14 0 -22 8.5t-8 21.5v114h-414q-35 0 -35 30v652q0 13 10.5 21.5t24.5 8.5h105q14 0 24.5 -8.5t10.5 -21.5v-526h186v526q0 13 10.5 21.5t24.5 8.5h106q14 0 24 -8.5t10 -21.5v-526h51q14 0 22 -8.5t8 -21.5v-240z" />
    <glyph glyph-name="afii10041" unicode="&#x427;" horiz-adv-x="651" 
d="M404 241h-159q-76 0 -132 53t-56 133v255q0 30 30 30h115q30 0 30 -30v-224q0 -29 17 -46t47 -17h108v287q0 30 30 30h115q30 0 30 -30v-652q0 -13 -8 -21.5t-22 -8.5h-115q-14 0 -22 8.5t-8 21.5v211z" />
    <glyph glyph-name="afii10042" unicode="&#x428;" horiz-adv-x="983" 
d="M72 30v652q0 13 10.5 21.5t24.5 8.5h105q14 0 24.5 -8.5t10.5 -21.5v-526h157v526q0 13 10.5 21.5t24.5 8.5h106q14 0 24 -8.5t10 -21.5v-526h157v526q0 13 10.5 21.5t24.5 8.5h106q14 0 24 -8.5t10 -21.5v-652q0 -13 -8 -21.5t-22 -8.5h-774q-35 0 -35 30z" />
    <glyph glyph-name="afii10043" unicode="&#x429;" horiz-adv-x="1011" 
d="M992 -114q0 -13 -8 -21.5t-22 -8.5h-108q-14 0 -22 8.5t-8 21.5v114h-717q-35 0 -35 30v652q0 13 10.5 21.5t24.5 8.5h105q14 0 24.5 -8.5t10.5 -21.5v-526h157v526q0 13 10.5 21.5t24.5 8.5h106q14 0 24 -8.5t10 -21.5v-526h157v526q0 13 10.5 21.5t24.5 8.5h106
q14 0 24 -8.5t10 -21.5v-526h51q14 0 22 -8.5t8 -21.5v-240z" />
    <glyph glyph-name="afii10044" unicode="&#x42a;" horiz-adv-x="756" 
d="M726 229q0 -103 -68 -166t-175 -63h-247q-35 0 -35 30v526h-141q-15 0 -22.5 10.5t-7.5 24.5v86q0 15 8 25t22 10h281q14 0 24.5 -8.5t10.5 -21.5v-224h107q107 0 175 -63.5t68 -165.5zM551 229q0 31 -21.5 51.5t-54.5 20.5h-99v-144h102q32 0 52.5 20.5t20.5 51.5z" />
    <glyph glyph-name="afii10045" unicode="&#x42b;" horiz-adv-x="910" 
d="M838 30q0 -13 -10.5 -21.5t-24.5 -8.5h-105q-14 0 -24.5 8.5t-10.5 21.5v652q0 30 35 30h105q35 0 35 -30v-652zM597 229q0 -103 -68 -166t-175 -63h-247q-35 0 -35 30v652q0 13 10.5 21.5t24.5 8.5h105q14 0 24.5 -8.5t10.5 -21.5v-224h107q107 0 175 -63.5t68 -165.5z
M422 229q0 31 -21.5 51.5t-54.5 20.5h-99v-144h102q32 0 52.5 20.5t20.5 51.5z" />
    <glyph glyph-name="afii10046" unicode="&#x42c;" horiz-adv-x="627" 
d="M597 229q0 -103 -68 -166t-175 -63h-247q-35 0 -35 30v652q0 13 10.5 21.5t24.5 8.5h105q14 0 24.5 -8.5t10.5 -21.5v-224h107q107 0 175 -63.5t68 -165.5zM422 229q0 31 -21.5 51.5t-54.5 20.5h-99v-144h102q32 0 52.5 20.5t20.5 51.5z" />
    <glyph glyph-name="afii10047" unicode="&#x42d;" horiz-adv-x="547" 
d="M498 356q0 -89 -9 -159q-10 -68 -63 -123q-77 -80 -200 -80q-109 0 -179 64q-7 6 -7 16q0 14 11 25l72 71q10 10 24 10q9 0 18 -7q26 -23 62 -23q45 0 69 30q22 28 26 101h-143q-14 0 -22 10.5t-8 24.5v82q0 35 30 35h142q-4 70 -25 99q-22 30 -69 30q-38 0 -65 -26
q-4 -4 -16 -4q-16 0 -25 9l-71 71q-10 10 -10 23q0 11 8 19q68 64 179 64q122 0 199 -80q41 -43 56.5 -98t15.5 -159v-25z" />
    <glyph glyph-name="afii10048" unicode="&#x42e;" horiz-adv-x="920" 
d="M871 356q0 -59 -1 -80t-6.5 -66t-21.5 -76t-43 -60q-76 -80 -198 -80q-123 0 -200 80q-40 42 -54.5 92.5t-17.5 115.5h-82v-252q0 -13 -10.5 -21.5t-24.5 -8.5h-105q-14 0 -24.5 8.5t-10.5 21.5v652q0 30 35 30h105q35 0 35 -30v-244h83q4 74 19.5 118t51.5 82
q76 80 198 80q123 0 200 -80q72 -75 72 -219v-63zM696 337v49q0 111 -26 145q-25 31 -70 31t-70 -31q-26 -34 -26 -145v-49q0 -122 26 -155q26 -32 70 -32t70 32q26 33 26 155z" />
    <glyph glyph-name="afii10049" unicode="&#x42f;" horiz-adv-x="649" 
d="M577 30q0 -13 -10 -21.5t-24 -8.5h-106q-14 0 -24.5 8.5t-10.5 21.5v224h-71l-91 -224q-13 -30 -47 -30h-130q-32 0 -32 19q0 2 6 16l119 256q-49 30 -76.5 80t-27.5 112q0 100 68.5 164.5t174.5 64.5h247q35 0 35 -30v-652zM402 411v145h-101q-33 0 -54.5 -21t-21.5 -52
t21.5 -51.5t54.5 -20.5h101z" />
    <glyph glyph-name="afii10065" unicode="&#x430;" horiz-adv-x="536" 
d="M483 25q0 -25 -30 -25h-100q-30 0 -30 25v19q-29 -28 -54 -38.5t-64 -10.5q-81 0 -129.5 47t-48.5 125q0 73 49 115.5t134 42.5h109v14q0 36 -18.5 51.5t-62.5 15.5q-42 0 -67 -19q-9 -7 -19 -7t-18 8l-65 65q-9 9 -9 19q0 8 8 16q39 32 77.5 44t97.5 12q240 0 240 -195
v-324zM319 202v14h-83q-23 0 -37.5 -12t-14.5 -31q0 -45 61 -45q38 0 56 17.5t18 56.5z" />
    <glyph glyph-name="afii10066" unicode="&#x431;" horiz-adv-x="549" 
d="M506 255q0 -79 -12 -121.5t-43 -75.5q-59 -64 -164 -64q-106 0 -167 64q-58 62 -58 224q0 181 7 233q16 117 90 168q2 1 5 3q13 9 31.5 16t37 11.5t41 8.5t40 6t38.5 3t33.5 1.5t27 1t15.5 0.5q14 1 19.5 -7.5t5.5 -22.5v-85q0 -29 -25 -30l-19 -1q-19 0 -30.5 -0.5
t-34.5 -3t-40.5 -6t-38 -10.5t-36.5 -16q-44 -26 -48 -95h3q15 24 48.5 41t80.5 17q193 0 193 -260zM342 258q0 66 -14 87.5t-44 21.5t-44 -21.5t-14 -87.5q0 -71 13.5 -93.5t44.5 -22.5t44.5 22.5t13.5 93.5z" />
    <glyph glyph-name="afii10067" unicode="&#x432;" 
d="M513 158q0 -72 -45.5 -115t-122.5 -43h-253q-30 0 -30 25v488q0 25 30 25h242q79 0 125 -41t46 -110t-59 -111q36 -22 51.5 -49.5t15.5 -68.5zM343 376q0 43 -48 43h-72v-87h72q48 0 48 44zM351 166q0 22 -13 34.5t-36 12.5h-79v-94h79q23 0 36 12.5t13 34.5z" />
    <glyph glyph-name="afii10068" unicode="&#x433;" horiz-adv-x="444" 
d="M229 392v-367q0 -11 -8 -18t-22 -7h-104q-30 0 -30 25v488q0 25 30 25h314q25 0 25 -30v-86q0 -30 -25 -30h-180z" />
    <glyph glyph-name="afii10069" unicode="&#x434;" horiz-adv-x="604" 
d="M586 -89q0 -25 -30 -25h-94q-30 0 -30 25v89h-265v-89q0 -25 -30 -25h-94q-30 0 -30 25v210q0 25 30 25h23q25 78 35.5 156t10.5 211q0 25 30 25h351q30 0 30 -25v-367h33q30 0 30 -25v-210zM360 146v246h-87q0 -118 -40 -246h127z" />
    <glyph glyph-name="afii10070" unicode="&#x435;" horiz-adv-x="559" 
d="M521 241q0 -25 -30 -25h-292q5 -84 100 -84q54 0 91 31q6 6 13 6q10 0 23 -13l60 -60q9 -9 9 -17q0 -7 -8 -15q-77 -70 -193 -70q-256 0 -256 275q0 127 65 201t177 74q108 0 174.5 -70t66.5 -185v-48zM359 325q-1 40 -22 62t-58 22t-58.5 -22.5t-21.5 -61.5h160z" />
    <glyph glyph-name="afii10072" unicode="&#x436;" horiz-adv-x="792" 
d="M781 16q0 -16 -30 -16h-107q-26 0 -35.5 5.5t-16.5 18.5l-81 159l-33 -44v-114q0 -25 -30 -25h-104q-30 0 -30 25v114l-33 44l-81 -159q-7 -13 -16.5 -18.5t-35.5 -5.5h-107q-30 0 -30 16q0 5 4 12l159 282l-150 207q-4 6 -4 9q0 12 17 12h128q29 0 39 -16l110 -180v171
q0 25 30 25h104q30 0 30 -25v-171l110 180q10 16 39 16h128q17 0 17 -12q0 -3 -4 -9l-150 -207l159 -282q4 -7 4 -12z" />
    <glyph glyph-name="afii10073" unicode="&#x437;" horiz-adv-x="504" 
d="M461 163q0 -75 -60.5 -122t-146.5 -47q-65 0 -131 17t-96 43q-9 9 -9 18q0 12 13 26l48 53q12 12 25 12q7 0 17 -6q13 -9 44 -17.5t60 -8.5q32 0 52.5 11t20.5 34q0 40 -60 40h-61q-25 0 -25 30v54q0 30 25 30h57q27 0 42.5 12t15.5 32q0 39 -76 39q-49 0 -76 -19
q-8 -6 -23 -6q-12 0 -23 11l-47 51q-10 10 -10 23t11 21q27 23 84 36.5t121 13.5q83 0 141.5 -39t58.5 -107q0 -73 -67 -114q75 -38 75 -121z" />
    <glyph glyph-name="afii10074" unicode="&#x438;" horiz-adv-x="596" 
d="M534 25q0 -25 -30 -25h-104q-30 0 -30 25v256l-130 -254q-14 -27 -39 -27h-109q-30 0 -30 25v488q0 25 30 25h104q30 0 30 -25v-246l131 246q13 25 38 25h109q30 0 30 -25v-488z" />
    <glyph glyph-name="afii10075" unicode="&#x439;" horiz-adv-x="596" 
d="M459 712q-2 -54 -44.5 -93t-116.5 -39t-116.5 39t-44.5 93q-2 25 25 25h50q11 0 17.5 -3t10 -7.5t9.5 -14.5q13 -22 49 -22t49 22q6 10 9.5 14.5t10 7.5t17.5 3h50q27 0 25 -25zM534 25q0 -25 -30 -25h-104q-30 0 -30 25v256l-130 -254q-14 -27 -39 -27h-109
q-30 0 -30 25v488q0 25 30 25h104q30 0 30 -25v-246l131 246q13 25 38 25h109q30 0 30 -25v-488z" />
    <glyph glyph-name="afii10076" unicode="&#x43a;" horiz-adv-x="573" 
d="M564 16q0 -16 -30 -16h-121q-25 0 -34.5 5.5t-17.5 18.5l-103 173l-32 -38v-134q0 -25 -30 -25h-104q-13 0 -21.5 6.5t-8.5 18.5v488q0 25 30 25h104q30 0 30 -25v-169l138 178q12 16 39 16h138q17 0 17 -12q0 -3 -4 -9l-184 -202l190 -287q4 -7 4 -12z" />
    <glyph glyph-name="afii10077" unicode="&#x43b;" horiz-adv-x="584" 
d="M522 25q0 -25 -30 -25h-104q-30 0 -30 25v367h-91l-5 -188q-3 -100 -47 -152t-123 -52h-63q-25 0 -25 30v86q0 30 24 30q28 0 49 21t22 62l8 284q0 25 30 25h355q30 0 30 -25v-488z" />
    <glyph glyph-name="afii10078" unicode="&#x43c;" horiz-adv-x="689" 
d="M627 25q0 -25 -30 -25h-104q-30 0 -30 25v243l-68 -128q-7 -15 -32 -15h-38q-23 0 -31 15l-68 128v-243q0 -25 -30 -25h-104q-30 0 -30 25v488q0 25 30 25h109q21 0 34 -25l110 -212l109 212q12 25 34 25h109q30 0 30 -25v-488z" />
    <glyph glyph-name="afii10079" unicode="&#x43d;" horiz-adv-x="579" 
d="M517 25q0 -25 -30 -25h-104q-30 0 -30 25v176h-127v-176q0 -25 -30 -25h-104q-30 0 -30 25v488q0 25 30 25h104q30 0 30 -25v-166h127v166q0 25 30 25h104q30 0 30 -25v-488z" />
    <glyph glyph-name="afii10080" unicode="&#x43e;" horiz-adv-x="550" 
d="M507 270q0 -81 -13 -126.5t-46 -80.5q-66 -69 -173 -69q-109 0 -173 69q-34 36 -46.5 81.5t-12.5 130.5q0 75 13.5 120t45.5 80q64 69 173 69t173 -69q33 -35 46 -80.5t13 -124.5zM343 272q0 70 -15 97t-53 27t-53 -27t-15 -97q0 -75 14.5 -102.5t53.5 -27.5t53.5 27.5
t14.5 102.5z" />
    <glyph glyph-name="afii10081" unicode="&#x43f;" horiz-adv-x="579" 
d="M517 25q0 -25 -30 -25h-104q-30 0 -30 25v367h-127v-367q0 -25 -30 -25h-104q-30 0 -30 25v488q0 25 30 25h395q30 0 30 -25v-488z" />
    <glyph glyph-name="afii10082" unicode="&#x440;" horiz-adv-x="569" 
d="M526 269q0 -84 -8 -138q-9 -55 -42 -88q-47 -49 -131 -49q-71 0 -119 45v-188q0 -25 -30 -25h-104q-30 0 -30 25v662q0 25 30 25h98q31 0 31 -25v-19q29 28 56 39t67 11q85 0 132 -49q50 -51 50 -177v-49zM362 272q0 70 -15 97t-54 27q-16 0 -28.5 -5t-19.5 -17
t-11 -21.5t-6 -28t-2 -27.5v-28v-9q0 -66 15.5 -92t53.5 -26t52.5 28t14.5 102z" />
    <glyph glyph-name="afii10083" unicode="&#x441;" horiz-adv-x="475" 
d="M448 64q0 -9 -9 -16q-67 -54 -159 -54q-117 0 -179.5 72t-62.5 208q0 128 63.5 199t178.5 71q92 0 159 -54q8 -6 8 -15q0 -10 -10 -20l-72 -72q-10 -10 -21 -10q-8 0 -15 6q-24 17 -49 17q-78 0 -78 -127t78 -127q28 0 51 19q7 5 14 5q9 0 19 -10l75 -75q9 -9 9 -17z" />
    <glyph glyph-name="afii10084" unicode="&#x442;" horiz-adv-x="462" 
d="M456 422q0 -30 -25 -30h-118v-367q0 -25 -30 -25h-104q-30 0 -30 25v367h-118q-25 0 -25 30v86q0 30 25 30h400q25 0 25 -30v-86z" />
    <glyph glyph-name="afii10085" unicode="&#x443;" horiz-adv-x="514" 
d="M511 523q0 -3 -2 -11l-214 -576q-22 -61 -61.5 -88.5t-101.5 -27.5h-37q-25 0 -25 30v88q0 14 7 22t18 8h10q24 0 35.5 8.5t19.5 31.5l15 45l-170 459q-2 8 -2 11q0 15 27 15h111q16 0 23 -4t11 -17l84 -258l80 258q4 13 11 17t23 4h111q27 0 27 -15z" />
    <glyph glyph-name="afii10086" unicode="&#x444;" horiz-adv-x="746" 
d="M710 274q0 -136 -67 -207t-188 -73v-143q0 -25 -30 -25h-104q-30 0 -30 25v143q-121 2 -188 73t-67 207q0 134 66.5 201t188.5 69v143q0 25 30 25h104q30 0 30 -25v-143q122 -2 188.5 -69t66.5 -201zM546 269q0 124 -93 127v-254q46 2 69.5 31t23.5 96zM293 142v254
q-93 -3 -93 -127q0 -67 23.5 -96t69.5 -31z" />
    <glyph glyph-name="afii10087" unicode="&#x445;" 
d="M542 16q0 -16 -29 -16h-123q-31 0 -44 21l-69 115l-67 -115q-12 -21 -44 -21h-123q-29 0 -29 16q0 4 4 10l169 249l-163 237q-4 6 -4 10q0 16 29 16h123q32 0 44 -21l61 -109l63 109q12 21 44 21h123q28 0 28 -16q0 -6 -3 -10l-163 -237l169 -249q4 -6 4 -10z" />
    <glyph glyph-name="afii10088" unicode="&#x446;" horiz-adv-x="603" 
d="M585 -89q0 -25 -30 -25h-94q-30 0 -30 25v89h-339q-30 0 -30 25v488q0 25 30 25h104q30 0 30 -25v-367h127v367q0 25 30 25h104q30 0 30 -25v-367h38q30 0 30 -25v-210z" />
    <glyph glyph-name="afii10089" unicode="&#x447;" horiz-adv-x="555" 
d="M493 25q0 -25 -30 -25h-104q-30 0 -30 25v145h-123q-68 0 -113 40.5t-45 99.5v203q0 25 30 25h104q30 0 30 -25v-151q0 -23 13 -35.5t36 -12.5h68v199q0 25 30 25h104q30 0 30 -25v-488z" />
    <glyph glyph-name="afii10090" unicode="&#x448;" horiz-adv-x="834" 
d="M772 25q0 -25 -30 -25h-650q-30 0 -30 25v488q0 25 30 25h104q30 0 30 -25v-367h109v367q0 25 30 25h104q30 0 30 -25v-367h109v367q0 25 30 25h104q30 0 30 -25v-488z" />
    <glyph glyph-name="afii10091" unicode="&#x449;" horiz-adv-x="858" 
d="M840 -89q0 -25 -30 -25h-94q-30 0 -30 25v89h-594q-30 0 -30 25v488q0 25 30 25h104q30 0 30 -25v-367h109v367q0 25 30 25h104q30 0 30 -25v-367h109v367q0 25 30 25h104q30 0 30 -25v-367h38q30 0 30 -25v-210z" />
    <glyph glyph-name="afii10092" unicode="&#x44a;" horiz-adv-x="637" 
d="M609 177q0 -77 -51.5 -127t-132.5 -50h-238q-30 0 -30 25v367h-124q-25 0 -25 30v86q0 30 25 30h263q25 0 25 -30v-154h104q81 0 132.5 -49.5t51.5 -127.5zM447 177q0 22 -15 36t-38 14h-78v-100h78q23 0 38 14t15 36z" />
    <glyph glyph-name="afii10093" unicode="&#x44b;" horiz-adv-x="789" 
d="M514 177q0 -77 -51.5 -127t-132.5 -50h-238q-30 0 -30 25v488q0 25 30 25h104q30 0 30 -25v-159h104q81 0 132.5 -49.5t51.5 -127.5zM352 177q0 22 -15 36t-38 14h-78v-100h78q23 0 38 14t15 36zM727 25q0 -25 -30 -25h-104q-30 0 -30 25v488q0 16 6 20.5t24 4.5h104
q30 0 30 -25v-488z" />
    <glyph glyph-name="afii10094" unicode="&#x44c;" horiz-adv-x="542" 
d="M514 177q0 -77 -51.5 -127t-132.5 -50h-238q-30 0 -30 25v488q0 25 30 25h104q30 0 30 -25v-159h104q81 0 132.5 -49.5t51.5 -127.5zM352 177q0 22 -15 36t-38 14h-78v-100h78q23 0 38 14t15 36z" />
    <glyph glyph-name="afii10095" unicode="&#x44d;" horiz-adv-x="475" 
d="M437 274q0 -136 -62.5 -208t-179.5 -72q-92 0 -159 54q-9 7 -9 16q0 8 9 17l71 71q10 10 19 10q7 0 14 -5q23 -19 53 -19q65 0 80 76h-105q-25 0 -25 30v49q0 30 25 30h105q-15 77 -78 77q-29 0 -53 -17q-8 -6 -15 -6q-11 0 -21 10l-68 68q-10 10 -10 20q0 9 8 15
q67 54 159 54q115 0 178.5 -71t63.5 -199z" />
    <glyph glyph-name="afii10096" unicode="&#x44e;" horiz-adv-x="800" 
d="M757 270q0 -81 -13 -126.5t-46 -80.5q-66 -69 -173 -69q-100 0 -160.5 56t-68.5 154h-70v-179q0 -25 -30 -25h-104q-30 0 -30 25v488q0 25 30 25h104q30 0 30 -25v-169h70q11 94 72 147t157 53q109 0 173 -69q33 -35 46 -80.5t13 -124.5zM593 272q0 70 -15 97t-53 27
t-53 -27t-15 -97q0 -75 14.5 -102.5t53.5 -27.5t53.5 27.5t14.5 102.5z" />
    <glyph glyph-name="afii10097" unicode="&#x44f;" 
d="M334 309v99h-80q-23 0 -37.5 -14.5t-14.5 -35.5t14.5 -35t37.5 -14h80zM495 25q0 -25 -30 -25h-104q-30 0 -30 25v155h-42l-75 -159q-10 -21 -44 -21h-119q-28 0 -28 15q0 5 3 11l104 193q-88 46 -88 146q0 75 52 124t132 49h239q30 0 30 -25v-488z" />
    <glyph glyph-name="afii10071" unicode="&#x451;" horiz-adv-x="559" 
d="M480 667q0 -34 -23 -57.5t-57 -23.5q-33 0 -56.5 23.5t-23.5 56.5t23.5 56.5t56.5 23.5q32 0 56 -23.5t24 -55.5zM246 667q0 -34 -23 -57.5t-57 -23.5q-33 0 -56.5 23.5t-23.5 56.5t23.5 56.5t56.5 23.5q32 0 56 -23.5t24 -55.5zM521 241q0 -25 -30 -25h-292
q5 -84 100 -84q54 0 91 31q6 6 13 6q10 0 23 -13l60 -60q9 -9 9 -17q0 -7 -8 -15q-77 -70 -193 -70q-256 0 -256 275q0 127 65 201t177 74q108 0 174.5 -70t66.5 -185v-48zM359 325q-1 40 -22 62t-58 22t-58.5 -22.5t-21.5 -61.5h160z" />
    <glyph glyph-name="afii10099" unicode="&#x452;" horiz-adv-x="573" 
d="M516 -1q0 -76 -43 -127.5t-124 -51.5h-62q-25 0 -25 30v78q0 30 25 30h22q19 0 31 17.5t12 35.5v165q0 32 -17.5 51t-45.5 19t-45.5 -19t-17.5 -51v-151q0 -25 -30 -25h-104q-14 0 -22 7t-8 18v406h-23q-25 0 -25 30v66q0 30 25 30h23v130q0 25 30 25h104q30 0 30 -25
v-130h192q25 0 25 -30v-66q0 -30 -25 -30h-192v-87q56 50 120 50q78 0 124 -53t46 -142v-200z" />
    <glyph glyph-name="afii10100" unicode="&#x453;" horiz-adv-x="444" 
d="M365 769l-90 -137q-8 -13 -14 -17.5t-21 -4.5h-59q-15 0 -15 12q0 3 2 11l38 139q5 18 31 18h115q18 0 18 -9q0 -5 -5 -12zM229 392v-367q0 -11 -8 -18t-22 -7h-104q-30 0 -30 25v488q0 25 30 25h314q25 0 25 -30v-86q0 -30 -25 -30h-180z" />
    <glyph glyph-name="afii10101" unicode="&#x454;" horiz-adv-x="475" 
d="M442 64q0 -9 -9 -16q-67 -54 -159 -54q-117 0 -179.5 72t-62.5 208q0 128 63.5 199t178.5 71q92 0 159 -54q8 -6 8 -15q0 -10 -10 -20l-68 -68q-10 -10 -21 -10q-8 0 -15 6q-24 17 -53 17q-63 0 -78 -77h105q25 0 25 -30v-49q0 -30 -25 -30h-105q15 -76 80 -76
q30 0 53 19q7 5 14 5q9 0 19 -10l71 -71q9 -9 9 -17z" />
    <glyph glyph-name="afii10102" unicode="&#x455;" horiz-adv-x="504" 
d="M477 176q0 -88 -64.5 -135t-186.5 -47q-65 0 -108 13t-86 47q-9 6 -9 18q0 13 13 26l58 58q12 12 25 12q7 0 17 -6q43 -29 104 -29q77 0 77 36q0 30 -39 33l-83 8q-156 15 -156 153q0 84 61.5 132.5t167.5 48.5q107 0 172 -46q11 -8 11 -21t-10 -23l-56 -56
q-11 -11 -23 -11q-11 0 -23 6q-32 16 -80 16q-62 0 -62 -33q0 -25 35 -28l83 -8q77 -8 119.5 -50.5t42.5 -113.5z" />
    <glyph glyph-name="afii10103" unicode="&#x456;" horiz-adv-x="288" 
d="M226 25q0 -25 -30 -25h-104q-30 0 -30 25v488q0 16 6 20.5t24 4.5h104q30 0 30 -25v-488zM54 672q0 38 26 64t64 26q36 0 63 -26.5t27 -62.5q0 -38 -26 -64.5t-64 -26.5t-64 26t-26 64z" />
    <glyph glyph-name="afii10104" unicode="&#x457;" horiz-adv-x="288" 
d="M333 681q0 -34 -23 -57.5t-57 -23.5q-33 0 -56.5 23.5t-23.5 56.5t23.5 56.5t56.5 23.5q32 0 56 -23.5t24 -55.5zM119 681q0 -34 -23 -57.5t-57 -23.5q-33 0 -56.5 23.5t-23.5 56.5t23.5 56.5t56.5 23.5q32 0 56 -23.5t24 -55.5zM226 25q0 -25 -30 -25h-104q-30 0 -30 25
v488q0 16 6 20.5t24 4.5h104q30 0 30 -25v-488z" />
    <glyph glyph-name="afii10105" unicode="&#x458;" horiz-adv-x="288" 
d="M226 -21q0 -71 -46.5 -115t-120.5 -44h-62q-25 0 -25 30v78q0 30 25 30h32q33 0 33 33v522q0 25 30 25h104q30 0 30 -25v-534zM54 672q0 38 26 64t64 26q36 0 63 -26.5t27 -62.5q0 -38 -26 -64.5t-64 -26.5t-64 26t-26 64z" />
    <glyph glyph-name="afii10106" unicode="&#x459;" horiz-adv-x="838" 
d="M810 177q0 -77 -51.5 -127t-132.5 -50h-238q-30 0 -30 25v367h-91l-5 -188q-3 -100 -47 -152t-123 -52h-63q-25 0 -25 30v86q0 30 24 30q28 0 49 21t22 62l8 284q0 25 30 25h355q30 0 30 -25v-159h104q81 0 132.5 -49.5t51.5 -127.5zM648 177q0 22 -15 36t-38 14h-78
v-100h78q23 0 38 14t15 36z" />
    <glyph glyph-name="afii10107" unicode="&#x45a;" horiz-adv-x="833" 
d="M805 177q0 -77 -51.5 -127t-132.5 -50h-238q-30 0 -30 25v183h-127v-183q0 -25 -30 -25h-104q-30 0 -30 25v488q0 25 30 25h104q30 0 30 -25v-159h127v159q0 25 30 25h104q30 0 30 -25v-159h104q81 0 132.5 -49.5t51.5 -127.5zM643 177q0 22 -15 36t-38 14h-78v-100h78
q23 0 38 14t15 36z" />
    <glyph glyph-name="afii10108" unicode="&#x45b;" horiz-adv-x="573" 
d="M516 25q0 -25 -30 -25h-104q-30 0 -30 25v151q0 32 -17.5 51t-45.5 19t-45.5 -19t-17.5 -51v-151q0 -25 -30 -25h-104q-14 0 -22 7t-8 18v406h-23q-25 0 -25 30v66q0 30 25 30h23v130q0 25 30 25h104q30 0 30 -25v-130h192q25 0 25 -30v-66q0 -30 -25 -30h-192v-87
q56 50 120 50q78 0 124 -53t46 -142v-174z" />
    <glyph glyph-name="afii10109" unicode="&#x45c;" horiz-adv-x="573" 
d="M564 16q0 -16 -30 -16h-121q-25 0 -34.5 5.5t-17.5 18.5l-103 173l-32 -38v-134q0 -25 -30 -25h-104q-13 0 -21.5 6.5t-8.5 18.5v488q0 25 30 25h104q30 0 30 -25v-169l138 178q12 16 39 16h138q17 0 17 -12q0 -3 -4 -9l-184 -202l190 -287q4 -7 4 -12zM425 769l-90 -137
q-8 -13 -14 -17.5t-21 -4.5h-59q-15 0 -15 12q0 3 2 11l38 139q5 18 31 18h115q18 0 18 -9q0 -5 -5 -12z" />
    <glyph glyph-name="afii10110" unicode="&#x45e;" horiz-adv-x="514" 
d="M511 523q0 -3 -2 -11l-214 -576q-22 -61 -61.5 -88.5t-101.5 -27.5h-37q-25 0 -25 30v88q0 14 7 22t18 8h10q24 0 35.5 8.5t19.5 31.5l15 45l-170 459q-2 8 -2 11q0 15 27 15h111q16 0 23 -4t11 -17l84 -258l80 258q4 13 11 17t23 4h111q27 0 27 -15zM418 712
q-2 -54 -44.5 -93t-116.5 -39t-116.5 39t-44.5 93q-2 25 25 25h50q11 0 17.5 -3t10 -7.5t9.5 -14.5q13 -22 49 -22t49 22q6 10 9.5 14.5t10 7.5t17.5 3h50q27 0 25 -25z" />
    <glyph glyph-name="afii10193" unicode="&#x45f;" horiz-adv-x="579" 
d="M517 25q0 -25 -30 -25h-122v-89q0 -25 -30 -25h-94q-30 0 -30 25v89h-119q-30 0 -30 25v488q0 25 30 25h104q30 0 30 -25v-367h127v367q0 25 30 25h104q30 0 30 -25v-488z" />
    <glyph glyph-name="afii10050" unicode="&#x490;" 
d="M531 591q0 -14 -8 -24.5t-22 -10.5h-254v-526q0 -12 -11 -21t-24 -9h-105q-14 0 -24.5 8.5t-10.5 21.5v652q0 30 35 30h256v114q0 13 10.5 21.5t24.5 8.5h98q13 0 24 -9t11 -21v-235z" />
    <glyph glyph-name="afii10098" unicode="&#x491;" horiz-adv-x="444" 
d="M430 417q0 -25 -30 -25h-171v-367q0 -11 -8 -18t-22 -7h-104q-30 0 -30 25v488q0 25 30 25h181v89q0 25 30 25h94q30 0 30 -25v-210z" />
    <glyph glyph-name="endash" unicode="&#x2013;" horiz-adv-x="500" 
d="M500 248q0 -30 -25 -30h-450q-25 0 -25 30v94q0 30 25 30h450q25 0 25 -30v-94z" />
    <glyph glyph-name="emdash" unicode="&#x2014;" horiz-adv-x="1000" 
d="M1000 250q0 -30 -25 -30h-950q-25 0 -25 30v94q0 30 25 30h950q25 0 25 -30v-94z" />
    <glyph glyph-name="quoteleft" unicode="&#x2018;" horiz-adv-x="278" 
d="M241 775q0 -1 -0.5 -5t-0.5 -6l-34 -190q-4 -25 -14 -35.5t-33 -10.5h-91q-31 0 -31 25q0 9 5 27l59 172q6 18 9.5 26t15 15t30.5 7h56q29 0 29 -25z" />
    <glyph glyph-name="quoteright" unicode="&#x2019;" horiz-adv-x="278" 
d="M38 564l33 190q5 25 15 35.5t32 10.5h91q32 0 32 -25q0 -11 -6 -27l-58 -172q-7 -19 -10 -26t-14.5 -14.5t-30.5 -7.5h-56q-29 0 -29 25q0 7 1 11z" />
    <glyph glyph-name="quotesinglbase" unicode="&#x201a;" horiz-adv-x="278" 
d="M38 -58l33 190q5 25 15 35.5t32 10.5h91q32 0 32 -25q0 -11 -6 -27l-58 -172q-6 -18 -9.5 -26t-15 -15t-30.5 -7h-56q-29 0 -29 25q0 7 1 11z" />
    <glyph glyph-name="quotedblleft" unicode="&#x201c;" horiz-adv-x="511" 
d="M471 775q0 -1 -0.5 -5t-0.5 -6l-34 -190q-4 -25 -14 -35.5t-33 -10.5h-91q-31 0 -31 25q0 9 5 27l59 172q6 18 9.5 26t15 15t30.5 7h56q29 0 29 -25zM241 775q0 -1 -0.5 -5t-0.5 -6l-34 -190q-4 -25 -14 -35.5t-33 -10.5h-91q-31 0 -31 25q0 9 5 27l59 172q6 18 9.5 26
t15 15t30.5 7h56q29 0 29 -25z" />
    <glyph glyph-name="quotedblright" unicode="&#x201d;" horiz-adv-x="511" 
d="M38 564l33 190q5 25 15 35.5t32 10.5h91q32 0 32 -25q0 -11 -6 -27l-58 -172q-7 -19 -10 -26t-14.5 -14.5t-30.5 -7.5h-56q-29 0 -29 25q0 7 1 11zM268 564l33 190q5 25 15 35.5t32 10.5h91q32 0 32 -25q0 -11 -6 -27l-58 -172q-7 -19 -10 -26t-14.5 -14.5t-30.5 -7.5
h-56q-29 0 -29 25q0 7 1 11z" />
    <glyph glyph-name="quotedblbase" unicode="&#x201e;" horiz-adv-x="511" 
d="M38 -58l33 190q5 25 15 35.5t32 10.5h91q32 0 32 -25q0 -11 -6 -27l-58 -172q-7 -19 -10 -26t-14.5 -14.5t-30.5 -7.5h-56q-29 0 -29 25q0 7 1 11zM268 -58l33 190q5 25 15 35.5t32 10.5h91q32 0 32 -25q0 -11 -6 -27l-58 -172q-7 -19 -10 -26t-14.5 -14.5t-30.5 -7.5
h-56q-29 0 -29 25q0 7 1 11z" />
    <glyph glyph-name="dagger" unicode="&#x2020;" horiz-adv-x="564" 
d="M517 420q0 -30 -25 -30h-128v-365q0 -25 -30 -25h-104q-30 0 -30 25v365h-128q-25 0 -25 30v88q0 30 25 30h128v149q0 25 30 25h104q30 0 30 -25v-149h128q25 0 25 -30v-88z" />
    <glyph glyph-name="daggerdbl" unicode="&#x2021;" horiz-adv-x="564" 
d="M517 30q0 -30 -25 -30h-128v-149q0 -25 -30 -25h-104q-30 0 -30 25v149h-128q-25 0 -25 30v88q0 30 25 30h128v242h-128q-25 0 -25 30v88q0 30 25 30h128v149q0 25 30 25h104q30 0 30 -25v-149h128q25 0 25 -30v-88q0 -30 -25 -30h-128v-242h128q25 0 25 -30v-88z" />
    <glyph glyph-name="bullet" unicode="&#x2022;" horiz-adv-x="470" 
d="M398 337q0 -70 -47.5 -118t-115.5 -48q-67 0 -115 47.5t-48 115.5t48 115.5t115 47.5q66 0 114.5 -47.5t48.5 -112.5z" />
    <glyph glyph-name="ellipsis" unicode="&#x2026;" horiz-adv-x="899" 
d="M850 104q0 -45 -30.5 -76t-74.5 -31q-43 0 -74 30.5t-31 74.5t31 74.5t74 30.5t74 -30.5t31 -72.5zM554 103q0 -45 -30 -75.5t-74 -30.5t-75 31t-31 74q0 44 31 74.5t74 30.5t74 -30.5t31 -73.5zM259 104q0 -45 -30.5 -76t-74.5 -31t-74.5 30.5t-30.5 74.5t30.5 74.5
t74.5 30.5q43 0 74 -30.5t31 -72.5z" />
    <glyph glyph-name="perthousand" unicode="&#x2030;" horiz-adv-x="1229" 
d="M1184 133q0 -63 -41.5 -101t-109.5 -38q-69 0 -110 38t-41 101v95q0 63 41.5 101t109.5 38t109.5 -38t41.5 -101v-95zM812 133q0 -63 -41.5 -101t-109.5 -38q-69 0 -110 38t-41 101v95q0 63 41.5 101t109.5 38t109.5 -38t41.5 -101v-95zM347 484q0 -63 -41.5 -101
t-109.5 -38q-69 0 -110 38t-41 101v95q0 63 41.5 101t109.5 38t109.5 -38t41.5 -101v-95zM998 137q0 -39 35 -39t35 39v87q0 39 -35 39t-35 -39v-87zM626 137q0 -39 35 -39t35 39v87q0 39 -35 39t-35 -39v-87zM161 488q0 -39 35 -39t35 39v87q0 39 -35 39t-35 -39v-87z
M649 686l-317 -665q-6 -13 -12.5 -17t-21.5 -4h-65q-37 0 -25 26l317 665q6 13 12.5 17t21.5 4h65q37 0 25 -26z" />
    <glyph glyph-name="guilsinglleft" unicode="&#x2039;" horiz-adv-x="363" 
d="M303 43q0 -13 -12 -13q-8 0 -14 6l-230 227q-5 5 -5 16q0 13 7 20l228 225q6 6 14 6q12 0 12 -13v-125q0 -35 -18 -52l-63 -60l63 -60q18 -17 18 -52v-125z" />
    <glyph glyph-name="guilsinglright" unicode="&#x203a;" horiz-adv-x="363" 
d="M321 279q0 -11 -5 -16l-230 -227q-6 -6 -14 -6q-12 0 -12 13v125q0 35 18 52l63 60l-63 60q-18 17 -18 52v125q0 13 12 13q8 0 14 -6l228 -225q7 -7 7 -20z" />
    <glyph glyph-name="afii61352" unicode="&#x2116;" horiz-adv-x="975" 
d="M925 295q0 -63 -41.5 -101t-109.5 -38q-69 0 -110 38t-41 101v95q0 63 41.5 101t109.5 38t109.5 -38t41.5 -101v-95zM739 299q0 -39 35 -39t35 39v87q0 39 -35 39t-35 -39v-87zM576 30q0 -30 -35 -30h-76q-31 0 -44 25l-195 363v-358q0 -13 -10.5 -21.5t-24.5 -8.5h-94
q-14 0 -24.5 8.5t-10.5 21.5v652q0 30 35 30h77q31 0 44 -25l194 -363v358q0 13 10 21.5t24 8.5h95q14 0 24.5 -8.5t10.5 -21.5v-652zM925 30q0 -30 -25 -30h-252q-25 0 -25 30v64q0 30 25 30h252q25 0 25 -30v-64z" />
    <glyph glyph-name="trademark" unicode="&#x2122;" horiz-adv-x="973" 
d="M906 285h-117v219l-67 -131h-100l-67 131v-219h-117v427h117l117 -210l117 210h117v-427zM377 608h-105v-323h-116v323h-105v104h326v-104z" />
    <glyph glyph-name="radical" unicode="&#x221a;" horiz-adv-x="616" 
d="M565 556h-73l-180 -714q-4 -16 -29 -16h-80q-25 0 -29 13l-133 394q0 1 -0.5 3t-0.5 4q0 15 26 15h101q36 0 42 -22l27 -93l121 551q6 21 38 21h167q24 0 24 -28v-93q0 -35 -21 -35z" />
    <glyph glyph-name="infinity" unicode="&#x221e;" horiz-adv-x="876" 
d="M829 295q0 -94 -56 -150t-149 -56q-56 0 -99 22t-87 66q-44 -44 -87 -66t-99 -22q-94 0 -149.5 56t-55.5 150t56 150t149 56q56 0 99 -22t87 -66q44 44 87 66t99 22q93 0 149 -56t56 -150zM669 290q0 21 -13.5 35t-33.5 14q-17 0 -31.5 -10t-38.5 -39q24 -29 38.5 -39
t31.5 -10q20 0 33.5 13.5t13.5 35.5zM324 290q-24 29 -38.5 39t-31.5 10q-20 0 -33.5 -13.5t-13.5 -35.5t13.5 -35.5t33.5 -13.5q17 0 31.5 10t38.5 39z" />
    <glyph glyph-name="approxequal" unicode="&#x2248;" horiz-adv-x="646" 
d="M610 410q0 -10 -27 -33.5t-45 -33.5q-49 -31 -113 -31q-58 0 -119 34q-43 25 -84 25q-42 0 -75 -30q-7 -5 -14 -5q-9 0 -19 10l-71 69q-9 9 -9 17q0 10 27 33.5t45 33.5q50 31 113 31q58 0 119 -34q45 -25 84 -25q44 0 75 30q7 5 14 5q9 0 19 -10l71 -69q9 -9 9 -17z
M610 156q0 -10 -27 -33.5t-45 -33.5q-49 -31 -113 -31q-58 0 -119 34q-43 25 -84 25q-42 0 -75 -30q-7 -5 -14 -5q-9 0 -19 10l-71 69q-9 9 -9 17q0 10 27 33.5t45 33.5q50 31 113 31q58 0 119 -34q45 -25 84 -25q44 0 75 30q7 5 14 5q9 0 19 -10l71 -69q9 -9 9 -17z" />
    <glyph glyph-name="notequal" unicode="&#x2260;" 
d="M507 126q0 -30 -25 -30h-244l-61 -110q-10 -16 -32 -3l-61 35q-22 13 -15 28l28 50h-23q-25 0 -25 30v94q0 30 25 30h109l51 90h-160q-25 0 -25 30v94q0 30 25 30h245l63 112q10 16 32 3l61 -35q22 -13 15 -28l-29 -52h21q25 0 25 -30v-94q0 -30 -25 -30h-107l-51 -90
h158q25 0 25 -30v-94z" />
    <glyph glyph-name="lessequal" unicode="&#x2264;" 
d="M525 4q0 -30 -25 -30h-445q-25 0 -25 30v92q0 30 25 30h445q25 0 25 -30v-92zM525 199q0 -26 -19 -26q-3 0 -25 6l-426 129q-15 5 -20 14t-5 27v73q0 43 25 50l426 121q22 6 25 6q19 0 19 -26v-83q0 -39 -31 -46l-251 -54l251 -61q31 -8 31 -46v-84z" />
    <glyph glyph-name="greaterequal" unicode="&#x2265;" 
d="M525 349q0 -18 -5 -27t-20 -14l-426 -129q-22 -6 -25 -6q-19 0 -19 26v84q0 38 31 46l251 61l-251 54q-31 7 -31 46v83q0 26 19 26q3 0 25 -6l426 -121q25 -7 25 -50v-73zM525 4q0 -30 -25 -30h-445q-25 0 -25 30v92q0 30 25 30h445q25 0 25 -30v-92z" />
    <glyph glyph-name="hyphen" horiz-adv-x="426" 
d="M383 248q0 -30 -25 -30h-290q-25 0 -25 30v94q0 30 25 30h290q25 0 25 -30v-94z" />
  </font>
</defs>
</svg>
